<?xml version="1.0" encoding="UTF-8"?><svg id="Layer_1" xmlns="http://www.w3.org/2000/svg" xmlns:xlink="http://www.w3.org/1999/xlink" viewBox="0 0 137.15 112.98"><defs><style>.cls-1{fill:#fff;stroke-width:0px;}.cls-2{mask:url(#mask);}.cls-3{filter:url(#luminosity-invert-noclip);}</style><filter id="luminosity-invert-noclip" x="-5.01" y="-.21" width="140.07" height="103.66" color-interpolation-filters="sRGB" filterUnits="userSpaceOnUse"><feColorMatrix result="cm" values="-1 0 0 0 1 0 -1 0 0 1 0 0 -1 0 1 0 0 0 1 0"/><feFlood flood-color="#fff" result="bg"/><feBlend in="cm" in2="bg"/></filter><mask id="mask" x="-5.01" y="-.21" width="140.07" height="103.66" maskUnits="userSpaceOnUse"><g class="cls-3"><path class="cls-1" d="m-5.01,89.26s36.12-30.24,63.63-30.17c27.51.07,51.84,6.39,73.67,31.48,25.86,29.73-137.3-1.31-137.3-1.31Z"/><path class="cls-1" d="m65.2,61.4s14.95.18,27.53,1.16c-3.5-1.01-7.25-1.77-11.07-2.32.69-2.02,1.04-3.62,1.08-3.97.05-.45-.06-1.48-.3-2.72-.23,2.79-1.56,4.74-1.56,4.74.91-2.17,1.06-4.77,1.06-6.19,0-.65-.03-1.06-.03-1.07-.41,4.17-2.69,7.51-3.67,8.78-.03,0-.06,0-.09-.01,2.08-3.39,2.65-6.68,2.65-9.24,0-2.83-.69-4.78-.77-5.02-.63,4.43-.26,8.19-.38,8.54,1.27-6.62-1.94-11.58-1.94-11.58-.13-.05-.24.16-.24.16,0,0-.31-.29-.98-.65-.56-.29-.77-.19-.82-.16.02-.04.07-.15.1-.35.05-.29-.15-.64-.15-.64-1.06-1.51-2.08-2.7-2.94-3.57,1.06,1.51,2.19,3.62,2.33,3.88-1.36-2.09-4.25-5.53-4.25-5.53-.35-.15-1.24-.33-3.12-.02,0,0,1.61-.51,2.86-.27-.01-.21-.09-1.12-.11-1.4-.01-.09-.05-.16-.09-.21-.01,0-.31-.15-.98,0,.05-.04.28-.2.67-.2.05-.51.28-1.06.59-1.64.21.34.41.63.55.83.53.73,1.12,1.24,1.65,1.46.26.12.5.16.71.12.09,0,.17-.03.25-.06.05-.01.09-.03.13-.05.38-.17.65-.45.69-.68,0-.03,0-.06,0-.09,0-.05-.03-.13-.07-.22-.23-.55-.97-1.63-.97-1.63l-1.18-1.83-.16-.25c.05-.03.09-.06.11-.09.03-.03.05-.06.05-.06,0,0,.01-.02.03-.07.01-.05.04-.11.07-.18.18-.5.55-1.7.47-3.17-.02-.43-.07-.87-.15-1.3-.08-.4-.2-.79-.36-1.16-.01-.03-.02-.05-.03-.07-.27-.57-.69-1.08-1.09-1.56-.07-.07-.13-.15-.21-.23-.17-.2-.36-.41-.55-.59-.15-.15-.3-.28-.46-.4-.01,0-.03-.02-.05-.03t0,0s-.03-.02-.04-.03c-.05-.04-.11-.08-.17-.12-.3-.2-.62-.37-.95-.53-.13-.07-.27-.13-.41-.19-.01,0-.03-.01-.05-.02-.13-.06-.26-.11-.39-.17-.01,0-.03-.01-.04-.01,0,0-.01,0-.02-.01-.41-.16-.82-.3-1.25-.37-.17-.03-.36-.06-.54-.07-.02,0-.04,0-.06,0-.65-.02-1.28.06-1.92.11-.33.03-.63.11-.93.23-.2.08-.39.17-.57.28-.01,0-.03.01-.03.03-.71.43-1.26.98-1.69,1.7-.06.1-.11.2-.17.31-.07.01-.13.02-.17.03s-.06.01-.06.01c0,0-.07.01-.11.11h-.02s0,.03,0,.03h0c-.02.05-.07.13-.12.22-.08.15-.18.35-.21.43-.03.09-.09.17-.15.25-.04.07-.08.12-.08.15,0,.06.21.12.37.18,0,.01,0,.03-.01.04,0,.04-.02.07-.03.11-.03.1-.06.19-.08.29,0,.03,0,.05,0,.08h0c-.46.57-.73,1.15-.83,1.22-.17.13-.25.37-.25.37,0,0-.1-.08-.11-.23l-1.06-.65.88.47c-.27-.24-.78-.58-.94-.58,0,0-.52.1-1.39,1.29.15-.24.46-.68.71-.97l-.17-.14.02-.15c.03-.16-.19-.32-.35-.48-.17-.16-.47-.15-.47-.15l-.08.23c.05-.47,0-1.14-.48-1.11-.5.03-.75.4-.75.4.11-.27.31-.35.31-.35l-.67-.48-.03-.13-2.46-1.83,2.33,1.73-2.35-1.81-.13-.22-.05-.03-1.37-.8.75.4c-.38-.27-.81-.56-.83-.58-.06-.05-.25-.47-.25-.47l-.58-.38c-.1.21-.33.46-.44.57.29-.33.39-.67.39-.67-.05-.09-.23-.09-.23-.09.03-.16-.17-.15-.17-.15-.24.07-.59.37-1.53,1.67-.93,1.32-1.35,2.09-1.36,2.32,0,.16.07.21.09.24.02-.02.39-.25.85-.75-.12.15-.47.57-.8.78.01.1.21.11.21.11,0,0,.43.31.65.4,0,0,.65-.43,1.38-1.54-.09.15.1.57-.69,1.33.13,0-.2.24-.2.24l.14.13c-.27.29,1.74,2.32,1.74,2.32-.16.35-.13.55.11.79.24.24,1,.71,1,.71-.06.09.05.32.05.32-.15.95.29,1.18.29,1.18,0,0-.07,0-.1.45,0,.23.1.33.26.48,0,0,.68.46.96,1.26-.05-.06-.16-.41-.43-.55.02.01.02.05.03.07.35.85.83,1.4.83,1.4-.09.45-.29.87-.53,1.2v.02c-.08.11-.16.24-.24.33-.69.98-2.55,3.85-3.59,7.65.07-.38.53-2.54,1.46-4.84-1.68,2.99-2.47,6.6-2.26,7.42.18.75,1.3,1.34,1.93,1.61,0,0,2.63.72,6.65.62,0,0-3.51.26-6.23-.27.05,1.85.26,1.53,1.16,2.09.18.11.34.19.51.27,0,0,3.63.24,5.9.13,0,0-1.14.13-2.39.19,1.3.05,2.74.21,2.74.21l.83.08s-1.91,4.1-2,9.76c-.16.04-.32.08-.49.12-.08-.81-.14-1.69-.14-2.64,0-1.16-.2-2.4.3-3.69,0,.01-1.47,3.26-1.7,6.67-.07.02-.15.03-.22.05-.08-.71-.11-1.42-.18-2.09,0,.02-.1.89-.14,2.18-5.17,1.14-13.48,2.98-26.92,8.58,26.23-2.08,49.9-1.98,76.12.06,0,0-11.39-4.68-37.89-5.51Zm-7.25-34.83c.07.05.21.11.29.13.06.02.16-.06.22-.13.07-.06.13-.03.13-.03,0,.13-.18.34-.41.5-.21.15-.29.37-.29.37,0,0-.03-.4-.03-.59,0-.17.08-.24.08-.24Zm-2.28,3.23c.15-.27.21-.55.21-.92,0-.35-.06-.8-.19-1.41-.25-1.22.03-2.12.15-2.44h0c.09-.29.13-.71.13-.71.03.18.02.57-.03.73h0c-.11.32-.4,1.2-.14,2.39.13.63.19,1.08.19,1.44,0,.39-.07.68-.21.97-.21.39-.41,1.1-.5,1.56.04-.29.17-1.15.41-1.6Zm-7.65-9.95c-.16.24-.43.55-.69.82-.27.31-.53.59-.69.75.25-.29.5-.55.72-.84.07-.15.18-.42.34-.66.24-.32.51-.53.51-.53.31-.48.54-.89.67-1.11-.17.35-.55,1.1-.86,1.57Zm3.88,6.37c-.34-.01-.58-.05-.85-.13-.29-.09-.57-.24-1.01-.5.69.33.81.33,1.03.39.27.1.51.11.85.13.53.03.66.1.88.21.07.03.13.06.23.11.35.16.5.09.53.09.26-.09.45-.29.58-.58.19-.43.27-.95.27-1.28.01-.15.06-.64.22-.87-.02.07-.09.39-.11.88-.02.34-.1.87-.29,1.3-.14.32-.33.58-.62.69h-.02s-.19.03-.61-.16c-.08-.03-.16-.07-.23-.1-.21-.11-.33-.17-.85-.19Zm2.1,13.19s2.14-.21,3.51-.82h-.09c-.61.05-2.22.53-4.53.35l.61-.16s-.08-1.67.26-2.86c.33-1.2,1.14-2.73,1.38-3.77.19-.48.69-.4,1.2-1.08,0,0,.31-.31.57-.5.29-.19.37-.24.74-1.24l.32.03s-.32.56-.27.75c.05.19.45.33.42.49-.03.18-.34.07-.35.37-.01.31.19,1.19-.16,1.68.05-.14.2-.57.05-1.07,0,0-.24.15-.51.67-.27.53-.16,1.36-.16,1.36,0,0-.25-.59-.09-1.11,0,0-.77,1.27.49,2.12l-.39-.13s.31.41.92.64c.05.01.87.29,1.47-.09-.03.03-.17.14-.31.22.03,0,.06-.01.09-.01,1.14-.19,1.51-.42,1.82-.48.05,0,.1,0,.15,0,.02,0,.05,0,.07,0,.01,0,.05.01.08.01.29.05.72.19.91.68-.07-.11-.27-.34-.63-.47.24.24.43.59.47.83.03.26.16.5.24.66.88-.23,1.88-.23,1.88-.23-1.06.15-1.75.39-2.17.56-.51.26-1.46.75-2.02,1.14-.4.27-.86.4-1.32.48,0,0-1.66.93-4.66.93Z"/><path class="cls-1" d="m65.86,19.05c.07,0,.14,0,.21,0,.02,0,.04,0,.06,0,.18,0,.37.03.54.07.43.07.84.21,1.25.37,0,0,.01,0,.02.01.01,0,.03,0,.04.01.13.05.26.11.39.17.01,0,.03.01.05.02.14.06.28.13.41.19.33.16.65.33.95.53.06.04.12.08.17.12.01,0,.03.02.04.03t0,0s.03.03.05.03c.16.12.31.25.46.4.19.18.38.39.55.59.07.08.13.16.21.23.4.48.82.99,1.09,1.56.01.02.02.04.03.07.16.37.28.75.36,1.16.09.43.13.86.15,1.3.08,1.46-.29,2.66-.47,3.17-.03.07-.05.13-.07.18-.02.05-.03.07-.03.07,0,0-.01.03-.05.06-.03.03-.06.06-.11.09l.16.25,1.18,1.83s.74,1.08.97,1.63c.03.09.06.17.07.22,0,.03,0,.06,0,.09-.05.23-.31.51-.69.68-.05.02-.09.03-.13.05-.08.03-.16.05-.25.06-.05.01-.11.02-.17.02-.17,0-.35-.05-.55-.14-.53-.23-1.12-.73-1.65-1.46-.14-.2-.33-.49-.55-.83-.31.58-.54,1.13-.59,1.64-.39,0-.63.16-.67.2.22-.05.39-.06.53-.06.3,0,.44.07.45.07.05.05.08.11.09.21.02.27.1,1.19.11,1.4-.24-.05-.49-.06-.74-.06-1.07,0-2.12.34-2.12.34.76-.12,1.35-.17,1.81-.17.69,0,1.09.1,1.31.19,0,0,2.89,3.44,4.25,5.53-.14-.26-1.28-2.37-2.33-3.88.85.87,1.88,2.06,2.94,3.57,0,0,.19.35.15.64-.03.21-.08.31-.1.35.02-.02.08-.04.18-.04.13,0,.33.04.64.2.67.35.98.65.98.65,0,0,.09-.17.2-.17.01,0,.03,0,.04,0,0,0,1.48,2.29,2.03,5.83-.19,2.93-.02,5.18-.08,5.67,0,.03,0,.05-.01.08,0-.02.01-.04.01-.08.39-2.09.34-4.02.08-5.67.06-.88.15-1.82.29-2.79.09.24.77,2.19.77,5.02,0,2.56-.57,5.85-2.65,9.24.03,0,.06,0,.09.01.98-1.26,3.26-4.6,3.67-8.78,0,0,.03.41.03,1.07,0,1.42-.15,4.02-1.06,6.19,0,0,1.34-1.94,1.56-4.74.24,1.25.35,2.28.3,2.72-.03.35-.38,1.94-1.08,3.97,3.82.55,7.57,1.3,11.07,2.32-12.58-.98-27.53-1.16-27.53-1.16,26.5.83,37.89,5.51,37.89,5.51-13.36-1.04-26.06-1.57-38.78-1.57s-24.48.5-37.34,1.51c13.44-5.6,21.75-7.44,26.92-8.58.04-1.29.14-2.16.14-2.18.07.67.1,1.38.18,2.09.07-.02.15-.03.22-.05.22-3.34,1.64-6.52,1.7-6.67-.5,1.29-.3,2.52-.3,3.68,0,.95.06,1.84.14,2.64.17-.04.33-.08.49-.12.09-5.66,2-9.76,2-9.76l-.83-.08s-1.45-.16-2.74-.21c1.25-.07,2.39-.19,2.39-.19-.43.02-.92.03-1.41.03-2.11,0-4.48-.16-4.48-.16-.17-.08-.33-.16-.51-.27-.89-.56-1.11-.24-1.16-2.09,1.38.27,2.96.34,4.18.34s2.05-.06,2.05-.06c-.26,0-.52,0-.76,0-3.58,0-5.88-.63-5.88-.63-.63-.27-1.75-.85-1.93-1.61-.21-.82.58-4.43,2.26-7.42-.93,2.3-1.39,4.45-1.46,4.84,1.04-3.79,2.9-6.67,3.59-7.65.08-.09.16-.23.24-.33v-.02c.24-.33.43-.75.53-1.2,0,0-.48-.55-.83-1.4-.01-.02-.01-.05-.03-.07.27.14.38.49.43.55-.27-.79-.96-1.26-.96-1.26-.16-.15-.26-.25-.26-.48.03-.45.1-.45.1-.45,0,0-.43-.23-.29-1.18,0,0-.11-.23-.05-.32,0,0-.75-.47-1-.71-.24-.24-.27-.43-.11-.79,0,0-2.01-2.03-1.74-2.32l-.14-.13s.34-.24.2-.24c.79-.76.6-1.18.69-1.33-.73,1.11-1.38,1.54-1.38,1.54-.22-.09-.65-.4-.65-.4,0,0-.19-.01-.21-.11.33-.21.68-.63.8-.78-.46.51-.83.73-.85.75-.03-.03-.09-.08-.09-.24.01-.23.43-1,1.36-2.32.94-1.3,1.29-1.6,1.53-1.67,0,0,0,0,.01,0,.04,0,.19,0,.16.15,0,0,.18,0,.23.09,0,0-.11.34-.39.67.11-.11.34-.36.44-.57l.58.38s.19.42.25.47c.02.02.45.31.83.58l-.75-.4,1.37.8.05.03.13.22,2.35,1.81-2.33-1.73,2.46,1.83.03.13.67.48s-.19.08-.31.35c0,0,.25-.37.75-.4.01,0,.02,0,.03,0,.45,0,.49.65.45,1.11l.08-.23s0,0,.02,0c.06,0,.3,0,.45.15.16.16.39.32.35.48l-.02.15.17.14c-.25.29-.56.73-.71.97.87-1.19,1.39-1.29,1.39-1.29.16,0,.67.34.94.58l-.88-.47,1.06.65c.01.15.11.23.11.23,0,0,.08-.24.25-.37.1-.07.37-.65.83-1.22h0s0-.06,0-.09c.02-.1.05-.19.08-.29,0-.03.02-.07.03-.11,0-.01,0-.03.01-.04-.17-.06-.37-.12-.37-.18,0-.03.04-.09.08-.15.05-.07.12-.15.15-.25.03-.08.13-.27.21-.43.05-.09.1-.17.12-.21h0s0-.03,0-.03h.02c.04-.11.11-.12.11-.12,0,0,.02,0,.06-.01s.1-.01.17-.03c.05-.11.11-.21.17-.31.43-.73.98-1.27,1.69-1.7,0-.01.02-.02.03-.03.18-.11.37-.2.57-.28.29-.12.6-.2.93-.23.57-.04,1.13-.11,1.71-.11m-19.22,2.36c.15-.15.42-.44.69-.75.26-.27.53-.58.69-.82.31-.47.69-1.22.86-1.57-.13.22-.36.63-.67,1.11,0,0-.27.21-.51.53-.16.24-.27.51-.34.66-.22.29-.47.55-.72.84m7.98,2.37c-.16.23-.21.72-.22.87,0,.33-.08.85-.27,1.28-.13.29-.32.49-.58.58-.01,0-.05.01-.12.01-.08,0-.22-.02-.41-.11-.09-.05-.16-.08-.23-.11-.22-.11-.35-.18-.88-.21-.33-.01-.57-.03-.85-.13-.21-.06-.34-.06-1.03-.39.43.26.72.41,1.01.5.27.08.51.11.85.13.51.02.64.08.85.19.07.03.15.07.23.1.32.15.51.16.58.16.02,0,.03,0,.03,0h.02c.29-.11.48-.37.62-.69.19-.43.27-.96.29-1.3.01-.49.09-.81.11-.88m.64,7.61c.09-.46.29-1.17.5-1.56.15-.29.21-.58.21-.97,0-.37-.07-.81-.19-1.44-.26-1.19.03-2.07.14-2.38h0c.05-.17.07-.56.03-.74,0,0-.03.42-.13.69h0c-.11.33-.4,1.24-.15,2.46.13.61.19,1.06.19,1.41,0,.37-.06.65-.21.92-.24.45-.37,1.32-.41,1.6m3-4.71s-.01,0-.02,0c-.08-.01-.23-.08-.29-.13,0,0-.08.07-.08.24,0,.19.03.59.03.59,0,0,.08-.22.29-.37.23-.16.41-.37.41-.5,0,0-.01,0-.04,0-.03,0-.06,0-.1.04-.05.06-.14.13-.2.13m-4.37,12.28c1.77,0,3.01-.35,3.53-.39h.09c-1.38.61-3.51.82-3.51.82,3,0,4.66-.93,4.66-.93.45-.08.91-.21,1.32-.48.57-.39,1.51-.88,2.02-1.14.42-.17,1.11-.41,2.17-.56,0,0-1,0-1.88.23-.08-.16-.21-.4-.24-.66-.03-.24-.23-.59-.47-.83.36.13.55.37.63.47-.19-.49-.63-.63-.91-.68-.03,0-.07-.01-.08-.01-.03,0-.05,0-.07,0-.05,0-.1,0-.15,0-.31.06-.67.29-1.82.48-.03,0-.06.01-.09.01.14-.08.28-.19.31-.22-.24.15-.52.2-.77.2-.37,0-.67-.1-.7-.11-.61-.23-.92-.64-.92-.64l.39.13c-1.27-.85-.49-2.12-.49-2.12-.16.51.09,1.11.09,1.11,0,0-.11-.83.16-1.36.27-.53.51-.67.51-.67.15.49,0,.93-.05,1.07.35-.49.15-1.36.16-1.68.01-.31.32-.19.35-.37.03-.16-.37-.3-.42-.49-.05-.19.27-.75.27-.75l-.32-.03c-.37,1-.45,1.04-.74,1.24-.27.19-.57.5-.57.5-.51.67-1.02.59-1.2,1.08-.25,1.04-1.05,2.57-1.38,3.77-.34,1.19-.26,2.86-.26,2.86l-.61.16c.35.03.69.04,1,.04m2.22,12.48s0,0,0,0c0,0,0,0,0,0m-6.76-35.41l-.65.08c-.84.3-1.48,1.03-2.45,2.38-.96,1.36-1.39,2.13-1.58,2.64l-.13.49c-.01.08-.02.16-.02.23v.06s0,.06,0,.06c0,.3-.34.55-.12.96l3.05,3.01c.13.62.48,1.08.75,1.36.12.12.28.25.45.38.03.3.1.58.2.83v.03c0,1.12.69,1.75.91,1.96l.05.04.03.1.06.1c.11.24.22.46.33.66l-.25.35v.03c-.42.61-2.11,2.8-2.11,2.8-1.7,3.02-2.87,7.26-2.46,8.89.24,1.02,1.03,1.9,2.35,2.61.13,1.04.52,1.86,1.73,2.49.08.04.18.09.29.16.28.18.53.3.74.39l.34.16.37.02c.08,0,1.74.11,3.53.15l-.49,1.25c-.31.71-1.14,2.8-1.59,5.27,0,0-.05.48-.71.67-5.2,1.16-13.35,3.18-25.77,8.35l-11.62,4.84,12.55-.99c12.81-1.01,24.97-1.51,37.18-1.51s25.05.51,38.62,1.57l12.7.99-10.64-4.37,7.14.56-18.85-5.45c-2.75-.79-6.51-1.41-9.76-1.96.18-1.14.05-2.36.08-2.71.09-.89-.05-4.71-.15-6.03l-1.3-7.56-.44,3.27-2.02-6.66-.67,2.94-.55-1.29c-.2-.08-.4-.13-.61-.16-.1-.06-.2-.12-.31-.18-.07-.18-.14-.33-.19-.42l-.05-.1-.06-.09c-.9-1.29-1.9-2.51-2.89-3.56.1-.03.19-.07.28-.11.98-.43,1.67-1.21,1.86-2.09.05-.22.05-.4.05-.52v-.12l-.02-.12c-.03-.27-.11-.48-.16-.64l-.02-.04-.02-.05c-.28-.68-.93-1.65-1.15-1.98l-.72-1.11c.25-.8.52-2.06.44-3.52-.03-.56-.09-1.08-.19-1.58-.11-.54-.27-1.06-.49-1.56l-.02-.05v-.02s-.04-.07-.06-.11c-.38-.79-.91-1.42-1.33-1.93l-.06-.07-.05-.05-.03-.03s-.08-.09-.12-.13c-.15-.18-.35-.39-.56-.61l-.82-.74-.58-.35c-.27-.16-.56-.32-.89-.48-.14-.07-.29-.14-.45-.21h-.03s-.06-.04-.06-.04c-.04-.02-.08-.03-.11-.05l-.02-.02-.39-.15c-.42-.17-.98-.37-1.62-.48-.26-.05-.5-.08-.73-.09-.05,0-.11-.01-.18-.01-.09,0-.17,0-.26,0-.5,0-.95.04-1.39.08-.15.01-.31.03-.46.04-.53.04-1.04.17-1.54.37-.27.11-.53.24-.8.39-.08.04-.15.09-.22.14-.85.54-1.53,1.21-2.06,2.03-.11.07-.22.16-.31.25l-.21.14-.1.2-.37.37v.32c-.05.1-.1.19-.13.27l-.02.02-.04.07c-.06.09-.16.25-.24.48-.03,0-.07,0-.1,0-.03-.02-.05-.04-.08-.07-.11-.24-.25-.45-.42-.63-.37-.4-.84-.66-1.37-.75l-.61-.34h0s0-.02,0-.02h0s-.02-.02-.02-.02l-.1-.18-.35-.25-.05-.03-.07-.05-.08-.05-.47-.28s-2.24-1.78-2.39-1.89l-.28-.31-.41-.46-.25-.16c-.13-.15-.28-.28-.45-.38-.22-.18-.4-.19-.68-.27l-.41-.03Z"/></g></mask></defs><g class="cls-2"><polygon class="cls-1" points="65.76 41.61 65.72 41.62 65.71 41.59 65.76 41.61"/><polygon class="cls-1" points="77.71 57.42 77.71 65.67 76.88 65.39 74.92 64.71 74.13 62.72 74.13 58.67 77.71 57.42"/><polygon class="cls-1" points="82.72 55.7 82.72 67.41 79.15 66.17 79.15 56.93 82.72 55.7"/><polygon class="cls-1" points="87.74 53.97 87.74 69.14 84.16 67.9 84.16 55.2 87.74 53.97"/><polygon class="cls-1" points="92.76 52.24 92.76 70.87 89.18 69.64 89.18 53.47 92.76 52.24"/><polygon class="cls-1" points="97.77 52.66 97.77 72.6 94.2 71.37 94.2 51.73 94.64 51.58 97.77 52.66"/><polygon class="cls-1" points="102.79 54.39 102.79 62.73 99.21 71.7 99.21 53.15 102.79 54.39"/><polygon class="cls-1" points="105.71 55.4 105.7 55.44 105.69 55.44 104.23 59.11 104.23 54.89 105.71 55.4"/><polygon class="cls-1" points="67.67 40.95 67.67 46.52 65.72 41.62 65.76 41.61 67.67 40.95"/><polygon class="cls-1" points="72.69 39.22 72.69 59.1 69.11 50.13 69.11 40.45 72.69 39.22"/><polygon class="cls-1" points="77.71 37.49 77.71 57.42 74.13 58.67 74.13 38.72 77.71 37.49"/><polygon class="cls-1" points="82.72 35.75 82.72 55.7 79.15 56.93 79.15 36.99 82.72 35.75"/><polygon class="cls-1" points="87.74 34.02 87.74 53.97 84.16 55.2 84.16 35.26 87.74 34.02"/><polygon class="cls-1" points="92.76 34.82 92.76 52.24 89.18 53.47 89.18 33.58 92.76 34.82"/><polygon class="cls-1" points="97.77 36.55 97.77 50.5 94.64 51.58 94.2 51.73 94.2 35.31 97.77 36.55"/><polygon class="cls-1" points="102.79 38.28 102.79 48.77 99.21 50 99.21 37.04 102.79 38.28"/><polygon class="cls-1" points="107.8 40.01 107.8 47.04 104.23 48.27 104.23 38.77 107.8 40.01"/><polygon class="cls-1" points="111.35 41.23 109.25 46.52 109.25 40.51 111.35 41.23"/><polygon class="cls-1" points="52.62 1.01 52.62 8.76 49.04 -.21 49.07 -.21 52.62 1.01"/><polygon class="cls-1" points="57.64 2.75 57.64 21.35 54.06 12.38 54.06 1.51 57.64 2.75"/><polygon class="cls-1" points="62.66 4.48 62.66 24.42 59.08 23.19 59.08 3.24 62.66 4.48"/><polygon class="cls-1" points="67.67 6.21 67.67 26.15 64.1 24.92 64.1 4.98 67.67 6.21"/><polygon class="cls-1" points="72.69 7.95 72.69 27.88 69.11 26.65 69.11 6.71 72.69 7.95"/><polygon class="cls-1" points="77.71 9.68 77.71 29.62 74.13 28.38 74.13 8.44 77.71 9.68"/><polygon class="cls-1" points="82.72 11.41 82.72 31.35 79.15 30.12 79.15 10.17 82.72 11.41"/><polygon class="cls-1" points="87.74 13.14 87.74 33.08 84.16 31.84 84.16 11.91 87.74 13.14"/><polygon class="cls-1" points="92.76 14.87 92.76 34.82 89.18 33.58 89.18 13.64 92.76 14.87"/><polygon class="cls-1" points="97.77 16.6 97.77 36.55 94.2 35.31 94.2 15.37 97.77 16.6"/><polygon class="cls-1" points="102.79 18.34 102.79 38.28 99.21 37.04 99.21 17.1 102.79 18.34"/><polygon class="cls-1" points="107.8 20.07 107.8 40.01 104.23 38.77 104.23 18.83 107.8 20.07"/><polygon class="cls-1" points="112.83 21.8 112.83 37.55 111.35 41.23 109.25 40.51 109.25 20.56 112.83 21.8"/><polygon class="cls-1" points="118.39 23.74 114.27 33.92 114.27 22.3 118.39 23.74"/></g><path class="cls-1" d="m65.15,61.4s14.25-1.28,27.53,1.16c-3.5-1.01-7.25-1.77-11.07-2.32.69-2.02,1.04-3.62,1.08-3.97.05-.45-.06-1.48-.3-2.72-.23,2.79-1.56,4.74-1.56,4.74.91-2.17,1.06-4.77,1.06-6.19,0-.65-.03-1.06-.03-1.07-.41,4.17-2.69,7.51-3.67,8.78-.03,0-.06,0-.09-.01,2.08-3.39,2.65-6.68,2.65-9.24,0-2.83-.69-4.78-.77-5.02,1.02,4.35-.26,8.19-.38,8.54,1.27-6.62-1.94-11.58-1.94-11.58-.13-.05-.24.16-.24.16,0,0-.31-.29-.98-.65-.56-.29-.77-.19-.82-.16.02-.04.07-.15.1-.35.05-.29-.15-.64-.15-.64-1.06-1.51-2.08-2.7-2.94-3.57,1.06,1.51,2.19,3.62,2.33,3.88-1.36-2.09-4.25-5.53-4.25-5.53-.35-.15-1.24-.33-3.12-.02,0,0,1.61-.51,2.86-.27-.01-.21-.09-1.12-.11-1.4-.01-.09-.05-.16-.09-.21-.01,0-.31-.15-.98,0,.05-.04.28-.2.67-.2.05-.51.28-1.06.59-1.64.21.34.41.63.55.83.53.73,1.12,1.24,1.65,1.46.26.12.5.16.71.12.09,0,.17-.03.25-.06.05-.01.09-.03.13-.05.38-.17.65-.45.69-.68,0-.03,0-.06,0-.09,0-.05-.03-.13-.07-.22-.23-.55-.97-1.63-.97-1.63l-1.18-1.83-.16-.25c.05-.03.09-.06.11-.09.03-.03.05-.06.05-.06,0,0,.01-.02.03-.07.01-.05.04-.11.07-.18.18-.5.55-1.7.47-3.17-.02-.43-.07-.87-.15-1.3-.08-.4-.2-.79-.36-1.16-.01-.03-.02-.05-.03-.07-.27-.57-.69-1.08-1.09-1.56-.07-.07-.13-.15-.21-.23-.17-.2-.36-.41-.55-.59-.15-.15-.3-.28-.46-.4-.01,0-.03-.02-.05-.03t0,0s-.03-.02-.04-.03c-.05-.04-.11-.08-.17-.12-.3-.2-.62-.37-.95-.53-.13-.07-.27-.13-.41-.19-.01,0-.03-.01-.05-.02-.13-.06-.26-.11-.39-.17-.01,0-.03-.01-.04-.01,0,0-.01,0-.02-.01-.41-.16-.82-.3-1.25-.37-.17-.03-.36-.06-.54-.07-.02,0-.04,0-.06,0-.65-.02-1.28.06-1.92.11-.33.03-.63.11-.93.23-.2.08-.39.17-.57.28-.01,0-.03.01-.03.03-.71.43-1.26.98-1.69,1.7-.06.1-.11.2-.17.31-.07.01-.13.02-.17.03s-.06.01-.06.01c0,0-.07.01-.11.11h-.02s0,.03,0,.03h0c-.02.05-.07.13-.12.22-.08.15-.18.35-.21.43-.03.09-.09.17-.15.25-.04.07-.08.12-.08.15,0,.06.21.12.37.18,0,.01,0,.03-.01.04,0,.04-.02.07-.03.11-.03.1-.06.19-.08.29,0,.03,0,.05,0,.08h0c-.46.57-.73,1.15-.83,1.22-.17.13-.25.37-.25.37,0,0-.1-.08-.11-.23l-.18-.19c-.27-.24-.78-.58-.94-.58,0,0-.52.1-1.39,1.29.15-.24.46-.68.71-.97l-.17-.14.02-.15c.03-.16-.19-.32-.35-.48-.17-.16-.47-.15-.47-.15l-.08.23c.05-.47,0-1.14-.48-1.11-.5.03-.75.4-.75.4.11-.27.31-.35.31-.35l-.67-.48-.03-.13-.55-.37-.13-.22-.05-.03s-4.42-3.05-4.44-3.07c-.06-.05-.25-.47-.25-.47l-.58-.38c-.1.21-.33.46-.44.57.29-.33.39-.67.39-.67-.05-.09-.23-.09-.23-.09.03-.16-.17-.15-.17-.15-.24.07-.59.37-1.53,1.67-.93,1.32-1.35,2.09-1.36,2.32,0,.16.07.21.09.24.02-.02.39-.25.85-.75-.12.15-.47.57-.8.78.01.1.21.11.21.11,0,0,.43.31.65.4,0,0,.65-.43,1.38-1.54-.09.15-.48.81-1.27,1.57h.37l3.13,2.21c-.27.29-.19.79-.19.79-.16.35-.13.55.11.79.24.24,1,.71,1,.71-.06.09.05.32.05.32-.15.95.29,1.18.29,1.18,0,0-.07,0-.1.45,0,.23.1.33.26.48,0,0,.68.46.96,1.26-.05-.06-.23-.33-.43-.55.02.01.02.05.03.07.35.85.83,1.4.83,1.4-.09.45-.29.87-.53,1.2v.02c-.08.11-.16.24-.24.33-.69.98-2.55,3.85-3.59,7.65.07-.38.53-2.54,1.46-4.84-1.68,2.99-2.47,6.6-2.26,7.42.18.75,1.3,1.34,1.93,1.61,0,0,2.63.72,6.65.62,0,0-3.51.26-6.23-.27.05,1.85.26,1.53,1.16,2.09.18.11.34.19.51.27,0,0,3.63.24,5.9.13,0,0-1.14.13-2.39.19,1.3.05,2.74.21,2.74.21l.83.08s-1.91,4.1-2,9.76c-.16.04-.32.08-.49.12-.08-.81-.14-1.69-.14-2.64,0-1.16.09-2.41.3-3.69,0,.01-1.47,3.26-1.7,6.67-.07.02-.15.03-.22.05-.08-.71-.15-1.47-.18-2.09,0,.02-.12.88-.16,2.16-5.17,1.14-13.46,3-26.9,8.59,26.23-2.08,49.9-1.98,76.12.06,0,0-11.39-4.68-37.89-5.51Zm-7.25-34.83c.07.05.21.11.29.13.06.02.16-.06.22-.13.07-.06.13-.03.13-.03,0,.13-.18.34-.41.5-.21.15-.29.37-.29.37,0,0-.03-.4-.03-.59,0-.17.08-.24.08-.24Zm-2.28,3.23c.15-.27.21-.55.21-.92,0-.35-.06-.8-.19-1.41-.25-1.22.03-2.12.15-2.44h0c.09-.29.13-.71.13-.71.03.18.02.57-.03.73h0c-.11.32-.4,1.2-.14,2.39.13.63.19,1.08.19,1.44,0,.39-.07.68-.21.97-.21.39-.41,1.1-.5,1.56.04-.29.17-1.15.41-1.6Zm-8.71-10.51c-.16.24-.43.55-.69.82-.27.31-.53.59-.69.75.25-.29.27-.36.49-.66.07-.15.41-.6.57-.84.24-.32.66-.82.66-.82.31-.48.4-.6.52-.82-.17.35-.55,1.1-.86,1.57Zm4.93,6.92c-.34-.01-.58-.05-.85-.13-.29-.09-.57-.24-1.01-.5.69.33.81.33,1.03.39.27.1.51.11.85.13.53.03.66.1.88.21.07.03.13.06.23.11.35.16.5.09.53.09.26-.09.45-.29.58-.58.19-.43.27-.95.27-1.28.01-.15.06-.64.22-.87-.02.07-.09.39-.11.88-.02.34-.1.87-.29,1.3-.14.32-.33.58-.62.69h-.02s-.19.03-.61-.16c-.08-.03-.16-.07-.23-.1-.21-.11-.33-.17-.85-.19Zm2.1,13.19s2.14-.21,3.51-.82h-.09c-.61.05-2.22.53-4.53.35l.61-.16s-.08-1.67.26-2.86c.33-1.2,1.14-2.73,1.38-3.77.19-.48.69-.4,1.2-1.08,0,0,.31-.31.57-.5.29-.19.37-.24.74-1.24l.32.03s-.32.56-.27.75c.05.19.45.33.42.49-.03.18-.34.07-.35.37-.01.31.09,1.02-.13,1.62-.2.65-.2,2.49,1.74,2.46-.03.03,1.29-.21,1.6-.27.05,0,.1,0,.15,0,.02,0,.05,0,.07,0,.01,0,.05.01.08.01.29.05.72.19.91.68-.07-.11-.27-.34-.63-.47.24.24.43.59.47.83.03.26.16.5.24.66.88-.23,1.88-.23,1.88-.23-1.06.15-1.75.39-2.17.56-.51.26-1.46.75-2.02,1.14-.4.27-.86.4-1.32.48,0,0-1.66.93-4.66.93Z"/><path class="cls-1" d="m18.42,107.54v5.44h-3.18v-15.44h6.02c1.16,0,2.18.21,3.06.64s1.56,1.03,2.03,1.81c.47.78.71,1.67.71,2.67,0,1.51-.52,2.71-1.55,3.58-1.04.87-2.47,1.31-4.3,1.31h-2.79Zm0-2.58h2.84c.84,0,1.48-.2,1.92-.59.44-.4.66-.96.66-1.7s-.22-1.37-.67-1.83-1.06-.71-1.84-.72h-2.92v4.85Z"/><path class="cls-1" d="m32.62,112.98h-3.18v-15.44h3.18v15.44Z"/><path class="cls-1" d="m41.29,107.33h-2.53v5.65h-3.18v-15.44h5.74c1.82,0,3.23.41,4.22,1.22.99.81,1.48,1.96,1.48,3.45,0,1.05-.23,1.93-.68,2.63s-1.15,1.26-2.07,1.68l3.34,6.31v.15h-3.41l-2.89-5.65Zm-2.53-2.58h2.57c.8,0,1.42-.2,1.86-.61.44-.41.66-.97.66-1.68s-.21-1.3-.62-1.72-1.05-.63-1.9-.63h-2.56v4.63Z"/><path class="cls-1" d="m58.14,109.8h-5.58l-1.06,3.18h-3.38l5.75-15.44h2.95l5.78,15.44h-3.38l-1.07-3.18Zm-4.72-2.58h3.86l-1.94-5.78-1.92,5.78Z"/><path class="cls-1" d="m67.41,110.43h7.78v2.56h-11.76v-1.87l7.63-10.99h-7.62v-2.58h11.58v1.82l-7.61,11.06Z"/><path class="cls-1" d="m82.03,106.79l-1.65,1.78v4.41h-3.18v-15.44h3.18v7l1.4-1.92,3.93-5.08h3.91l-5.48,6.86,5.64,8.58h-3.78l-3.97-6.19Z"/><path class="cls-1" d="m103.33,105.61c0,1.52-.27,2.85-.81,4-.54,1.15-1.31,2.03-2.31,2.65-1,.62-2.15.93-3.44.93s-2.42-.31-3.42-.92c-1-.61-1.78-1.49-2.33-2.63s-.83-2.45-.84-3.94v-.76c0-1.52.27-2.86.82-4.01.55-1.16,1.32-2.04,2.32-2.66,1-.62,2.14-.93,3.43-.93s2.43.31,3.43.93c1,.62,1.77,1.51,2.32,2.66.55,1.16.82,2.49.82,4v.69Zm-3.22-.7c0-1.62-.29-2.85-.87-3.69-.58-.84-1.41-1.26-2.48-1.26s-1.89.42-2.47,1.25c-.58.83-.87,2.05-.88,3.65v.75c0,1.58.29,2.8.87,3.67.58.87,1.41,1.3,2.5,1.3s1.89-.42,2.46-1.26c.57-.84.86-2.06.87-3.66v-.75Z"/><path class="cls-1" d="m111.11,109.15l3.5-11.61h3.54l-5.38,15.44h-3.32l-5.35-15.44h3.53l3.48,11.61Z"/><path class="cls-1" d="m27.81,88.25h-7l-1.33,3.99h-4.24l7.21-19.37h3.7l7.25,19.37h-4.24l-1.34-3.99Zm-5.92-3.23h4.84l-2.43-7.25-2.41,7.25Z"/><path class="cls-1" d="m42.37,85.15h-3.18v7.09h-3.99v-19.37h7.2c2.29,0,4.05.51,5.29,1.53,1.24,1.02,1.86,2.46,1.86,4.32,0,1.32-.29,2.42-.86,3.31s-1.44,1.59-2.6,2.11l4.19,7.92v.19h-4.28l-3.63-7.09Zm-3.18-3.23h3.22c1,0,1.78-.25,2.33-.76.55-.51.82-1.21.82-2.11s-.26-1.63-.78-2.16-1.31-.78-2.39-.78h-3.21v5.81Z"/><path class="cls-1" d="m66.51,76.1h-5.93v16.14h-3.99v-16.14h-5.85v-3.23h15.78v3.23Z"/><path class="cls-1" d="m83.44,72.87v12.76c0,2.12-.66,3.8-1.99,5.03-1.33,1.23-3.14,1.85-5.43,1.85s-4.06-.6-5.39-1.8-2.01-2.84-2.04-4.94v-12.9h3.99v12.78c0,1.27.3,2.19.91,2.77.61.58,1.45.87,2.52.87,2.24,0,3.38-1.18,3.42-3.54v-12.89h4Z"/><path class="cls-1" d="m93.88,85.15h-3.18v7.09h-3.99v-19.37h7.2c2.29,0,4.05.51,5.29,1.53,1.24,1.02,1.86,2.46,1.86,4.32,0,1.32-.29,2.42-.86,3.31s-1.44,1.59-2.6,2.11l4.19,7.92v.19h-4.28l-3.63-7.09Zm-3.18-3.23h3.22c1,0,1.78-.25,2.33-.76.55-.51.82-1.21.82-2.11s-.26-1.63-.78-2.16-1.31-.78-2.39-.78h-3.21v5.81Z"/><path class="cls-1" d="m114.15,87.16c0-.75-.27-1.33-.8-1.74-.53-.4-1.49-.83-2.87-1.28-1.38-.45-2.48-.89-3.29-1.32-2.2-1.19-3.3-2.79-3.3-4.8,0-1.05.29-1.98.88-2.8.59-.82,1.44-1.46,2.54-1.92s2.34-.69,3.72-.69,2.62.25,3.7.75c1.08.5,1.92,1.21,2.52,2.12s.9,1.95.9,3.11h-3.99c0-.89-.28-1.58-.84-2.07-.56-.49-1.34-.74-2.35-.74s-1.73.21-2.27.62c-.54.41-.81.96-.81,1.63,0,.63.32,1.16.95,1.58.63.43,1.57.82,2.8,1.2,2.27.68,3.92,1.53,4.96,2.54s1.56,2.27,1.56,3.78c0,1.68-.63,2.99-1.9,3.94-1.27.95-2.98,1.43-5.12,1.43-1.49,0-2.85-.27-4.07-.82-1.22-.55-2.16-1.29-2.8-2.24-.64-.95-.96-2.05-.96-3.3h4c0,2.14,1.28,3.21,3.83,3.21.95,0,1.69-.19,2.22-.58.53-.39.8-.92.8-1.62Z"/></svg>