<?xml version="1.0" encoding="UTF-8"?><svg id="Layer_1" xmlns="http://www.w3.org/2000/svg" xmlns:xlink="http://www.w3.org/1999/xlink" viewBox="0 0 137.15 91.25"><defs><style>.cls-1,.cls-2{stroke-width:0px;}.cls-2{fill:#fff;}.cls-3{mask:url(#mask);}.cls-4{filter:url(#luminosity-invert-noclip);}</style><filter id="luminosity-invert-noclip" x="7.3" y="0" width="129.37" height="97.72" color-interpolation-filters="sRGB" filterUnits="userSpaceOnUse"><feColorMatrix result="cm" values="-1 0 0 0 1 0 -1 0 0 1 0 0 -1 0 1 0 0 0 1 0"/><feFlood flood-color="#fff" result="bg"/><feBlend in="cm" in2="bg"/></filter><mask id="mask" x="7.3" y="0" width="129.37" height="97.72" maskUnits="userSpaceOnUse"><g class="cls-4"><path class="cls-2" d="m66.53,78.92h-32.96l-6.27,18.8H7.3L41.27,6.47h17.42l34.16,91.25h-19.99l-6.33-18.8Zm-27.89-15.23h22.81l-11.47-34.16-11.34,34.16Z"/></g></mask></defs><g class="cls-3"><path class="cls-1" d="m85.6,59.1v32.15h-18.8V0h35.6c6.85,0,12.88,1.25,18.08,3.76,5.2,2.51,9.2,6.07,12,10.69,2.8,4.62,4.2,9.87,4.2,15.76,0,8.94-3.06,15.99-9.18,21.15-6.12,5.16-14.59,7.74-25.41,7.74h-16.48Zm0-15.23h16.8c4.97,0,8.76-1.17,11.37-3.51,2.61-2.34,3.92-5.68,3.92-10.03s-1.32-8.08-3.95-10.84c-2.63-2.76-6.27-4.18-10.9-4.26h-17.23v28.64Z"/></g><path class="cls-1" d="m59.69,72.45H26.73l-6.27,18.8H.47L34.44,0h17.42l34.16,91.25h-19.99l-6.33-18.8Zm-27.89-15.23h22.81l-11.47-34.16-11.34,34.16Z"/></svg>