<?xml version="1.0" encoding="UTF-8"?><svg id="Layer_1" xmlns="http://www.w3.org/2000/svg" xmlns:xlink="http://www.w3.org/1999/xlink" viewBox="0 0 137.15 99.95"><defs><style>.cls-1{fill:#fff;stroke-width:0px;}.cls-2{mask:url(#mask);}.cls-3{filter:url(#luminosity-invert-noclip);}</style><filter id="luminosity-invert-noclip" x="-47.09" y="0" width="208.6" height="154.37" color-interpolation-filters="sRGB" filterUnits="userSpaceOnUse"><feColorMatrix result="cm" values="-1 0 0 0 1 0 -1 0 0 1 0 0 -1 0 1 0 0 0 1 0"/><feFlood flood-color="#fff" result="bg"/><feBlend in="cm" in2="bg"/></filter><mask id="mask" x="-47.09" y="0" width="208.6" height="154.37" maskUnits="userSpaceOnUse"><g class="cls-3"><path class="cls-1" d="m-47.09,133.24S6.71,88.2,47.67,88.31c40.96.1,77.2,9.52,109.7,46.88,38.51,44.27-204.46-1.95-204.46-1.95Z"/><path class="cls-1" d="m57.47,91.75s22.26.27,41,1.73c-5.21-1.51-10.8-2.63-16.48-3.45,1.03-3.01,1.55-5.39,1.6-5.91.07-.67-.09-2.2-.45-4.06-.34,4.16-2.33,7.05-2.33,7.05,1.36-3.23,1.58-7.1,1.58-9.22,0-.97-.05-1.58-.05-1.59-.62,6.22-4.01,11.19-5.47,13.07-.05,0-.09-.01-.14-.02,3.1-5.05,3.95-9.95,3.95-13.76,0-4.22-1.02-7.12-1.15-7.48-.94,6.59-.39,12.2-.57,12.71,1.89-9.86-2.88-17.25-2.88-17.25-.19-.08-.36.24-.36.24,0,0-.46-.44-1.46-.96-.84-.44-1.14-.29-1.22-.24.03-.06.1-.22.15-.53.07-.43-.22-.95-.22-.95-1.57-2.25-3.1-4.02-4.38-5.31,1.57,2.25,3.26,5.39,3.47,5.78-2.03-3.11-6.34-8.24-6.34-8.24-.53-.22-1.84-.49-4.64-.03,0,0,2.4-.77,4.26-.41-.02-.31-.14-1.67-.17-2.08-.02-.14-.07-.24-.14-.31-.02,0-.47-.22-1.46,0,.07-.06.42-.3,1-.3.07-.77.42-1.58.88-2.45.32.51.61.94.82,1.24.79,1.08,1.67,1.84,2.46,2.18.39.18.75.24,1.06.18.13,0,.25-.05.37-.09.07-.02.13-.04.2-.07.57-.25.96-.68,1.03-1.01,0-.04,0-.09,0-.13,0-.08-.05-.19-.1-.33-.34-.83-1.44-2.43-1.44-2.43l-1.75-2.73-.24-.37c.08-.04.13-.09.17-.13.05-.05.07-.09.07-.09,0,0,.02-.03.05-.1.02-.07.06-.16.1-.27.27-.75.82-2.54.7-4.71-.03-.65-.1-1.29-.23-1.93-.12-.6-.3-1.17-.54-1.72-.02-.04-.03-.07-.05-.1-.4-.86-1.02-1.61-1.62-2.33-.11-.11-.2-.23-.31-.35-.26-.3-.54-.61-.83-.88-.23-.22-.45-.42-.69-.6-.02,0-.05-.03-.07-.05t0,0s-.04-.03-.06-.04c-.08-.06-.17-.12-.26-.18-.45-.3-.92-.56-1.41-.8-.2-.1-.41-.2-.62-.29-.02,0-.05-.02-.07-.03-.19-.09-.39-.17-.58-.25-.02,0-.04-.02-.06-.02,0,0-.02,0-.03-.02-.61-.24-1.22-.45-1.86-.56-.26-.05-.54-.09-.81-.1-.03,0-.06,0-.09,0-.96-.03-1.9.09-2.85.16-.49.04-.94.16-1.38.34-.3.12-.58.26-.85.42-.02,0-.04.02-.05.04-1.06.65-1.88,1.45-2.52,2.54-.09.15-.17.3-.25.46-.11.02-.2.03-.26.04s-.09.02-.09.02c0,0-.11.02-.17.16l-.03.02v.02s0,0-.02,0h0c-.03.07-.1.18-.18.32-.12.23-.27.52-.31.64-.04.14-.14.26-.22.37-.06.1-.12.18-.12.23,0,.09.31.18.56.27,0,.02,0,.04-.02.06,0,.06-.03.11-.04.16-.05.15-.09.28-.12.43,0,.04,0,.08,0,.12h0c-.69.86-1.08,1.71-1.23,1.82-.26.19-.38.55-.38.55,0,0-.15-.12-.17-.34l-1.58-.97,1.31.7c-.4-.36-1.16-.87-1.4-.87,0,0-.78.15-2.07,1.92.23-.36.69-1.01,1.06-1.44l-.25-.21.03-.22c.05-.24-.29-.48-.53-.72-.26-.24-.7-.22-.7-.22l-.12.34c.07-.7,0-1.7-.72-1.65-.75.05-1.12.6-1.12.6.17-.41.46-.53.46-.53l-1-.72-.05-.19-3.67-2.72,3.48,2.57-3.51-2.69-.19-.33-.07-.05-2.04-1.19,1.12.6c-.57-.41-1.21-.84-1.24-.87-.09-.07-.38-.7-.38-.7l-.87-.57c-.15.31-.5.69-.66.85.43-.49.59-.99.59-.99-.07-.14-.34-.14-.34-.14.05-.24-.26-.22-.26-.22-.36.1-.89.55-2.28,2.49-1.38,1.96-2.01,3.11-2.03,3.45,0,.24.1.31.14.36.03-.03.59-.37,1.27-1.12-.18.23-.71.86-1.19,1.16.02.15.31.17.31.17,0,0,.65.46.97.6,0,0,.96-.64,2.06-2.29-.13.23.14.85-1.03,1.98.2,0-.3.36-.3.36l.21.19c-.41.44,2.59,3.46,2.59,3.46-.24.53-.19.82.17,1.17.36.36,1.48,1.05,1.48,1.05-.09.14.08.48.08.48-.22,1.41.43,1.75.43,1.75,0,0-.1,0-.15.67,0,.34.15.5.39.72,0,0,1.01.69,1.42,1.87-.07-.09-.24-.61-.64-.82.03.02.03.07.05.1.53,1.26,1.24,2.08,1.24,2.08-.14.67-.43,1.29-.79,1.79v.03c-.12.16-.24.36-.36.5-1.02,1.45-3.8,5.74-5.34,11.39.11-.57.79-3.78,2.18-7.2-2.51,4.45-3.68,9.83-3.37,11.05.27,1.12,1.94,1.99,2.87,2.4,0,0,3.92,1.07,9.9.92,0,0-5.23.39-9.28-.41.07,2.76.39,2.28,1.72,3.11.27.17.51.29.77.41,0,0,5.41.36,8.78.19,0,0-1.7.19-3.56.29,1.93.07,4.09.31,4.09.31l1.24.12s-2.84,6.1-2.98,14.53c-.24.06-.48.11-.73.17-.12-1.2-.21-2.52-.21-3.93,0-1.73-.3-3.57.45-5.49,0,.02-2.19,4.85-2.53,9.94-.11.02-.22.05-.33.07-.12-1.06-.16-2.12-.26-3.11,0,.03-.15,1.33-.2,3.24-7.69,1.69-20.08,4.44-40.09,12.77,39.07-3.09,74.32-2.94,113.35.09,0,0-16.96-6.96-56.42-8.21Zm-10.79-51.87c.1.07.32.17.44.19.09.03.24-.09.33-.19.1-.09.2-.05.2-.05,0,.2-.27.51-.61.75-.31.22-.43.55-.43.55,0,0-.05-.6-.05-.89,0-.26.12-.36.12-.36Zm-3.39,4.81c.22-.41.31-.82.31-1.37,0-.52-.09-1.19-.29-2.1-.38-1.82.05-3.16.22-3.64v-.02c.14-.41.19-1.03.19-1.03.05.27.03.85-.05,1.08v.02c-.16.46-.6,1.77-.21,3.54.19.93.29,1.6.29,2.15,0,.58-.1,1.01-.32,1.44-.31.58-.62,1.63-.75,2.32.06-.43.25-1.71.61-2.39Zm-11.39-14.82c-.24.36-.65.82-1.03,1.22-.4.46-.8.89-1.02,1.11.37-.44.75-.82,1.07-1.25.1-.22.27-.63.51-.98.36-.48.77-.79.77-.79.46-.72.81-1.32.99-1.65-.25.52-.83,1.64-1.28,2.34Zm5.77,9.48c-.51-.02-.87-.07-1.27-.19-.43-.14-.86-.36-1.5-.75,1.02.49,1.21.49,1.53.58.41.15.77.17,1.26.19.79.05.98.15,1.31.32.1.05.2.09.34.17.53.24.75.14.79.14.39-.14.68-.43.87-.87.29-.65.41-1.41.41-1.91.02-.22.09-.95.33-1.29-.03.11-.14.59-.16,1.31-.03.51-.15,1.29-.44,1.94-.21.48-.5.87-.92,1.03h-.03s-.29.04-.91-.24c-.12-.05-.24-.1-.34-.15-.31-.17-.5-.26-1.26-.29Zm3.13,19.64s3.18-.32,5.23-1.22h-.14c-.91.07-3.3.79-6.74.53l.91-.24s-.12-2.49.39-4.26c.5-1.79,1.69-4.07,2.06-5.62.28-.72,1.02-.6,1.79-1.6,0,0,.46-.46.86-.75.44-.29.56-.36,1.1-1.84l.48.05s-.48.84-.41,1.12c.08.29.68.5.63.74-.05.27-.51.1-.53.56-.02.47.29,1.77-.24,2.5.08-.21.3-.86.07-1.59,0,0-.36.22-.77,1-.41.79-.24,2.03-.24,2.03,0,0-.38-.89-.14-1.65,0,0-1.15,1.89.74,3.16l-.58-.19s.46.62,1.37.95c.07.02,1.3.43,2.19-.14-.05.04-.26.21-.47.33.05,0,.09-.02.14-.02,1.7-.29,2.25-.63,2.71-.72.08,0,.15,0,.23,0,.03,0,.07,0,.11,0,.02,0,.07.02.12.02.43.07,1.07.29,1.36,1.01-.11-.16-.4-.51-.93-.71.36.36.65.89.7,1.24.04.39.24.75.36.98,1.31-.34,2.79-.34,2.79-.34-1.58.22-2.61.58-3.23.84-.77.39-2.17,1.12-3.01,1.7-.6.41-1.28.6-1.96.72,0,0-2.47,1.39-6.93,1.39Z"/><path class="cls-1" d="m58.46,28.69c.1,0,.21,0,.31,0,.03,0,.06,0,.09,0,.27,0,.55.05.81.1.64.11,1.25.32,1.86.56,0,0,.02,0,.03.02.02,0,.04,0,.06.02.19.08.39.16.58.25.02,0,.05.02.07.03.21.09.42.19.62.29.49.24.96.5,1.41.8.09.06.18.12.26.18.02,0,.04.03.06.04t0,0s.05.04.07.05c.24.18.46.38.69.6.29.27.57.58.83.88.11.12.2.24.31.35.6.72,1.22,1.47,1.62,2.33.02.03.03.06.05.1.24.55.42,1.12.54,1.72.13.64.2,1.28.23,1.93.12,2.18-.43,3.97-.7,4.71-.04.11-.08.2-.1.27-.03.07-.05.1-.05.1,0,0-.02.04-.07.09-.04.04-.09.09-.17.13l.24.37,1.75,2.73s1.1,1.6,1.44,2.43c.05.14.09.25.1.33,0,.04,0,.09,0,.13-.07.34-.47.77-1.03,1.01-.07.03-.13.05-.2.07-.12.04-.24.08-.37.09-.08.01-.16.02-.25.02-.25,0-.53-.07-.82-.2-.79-.34-1.67-1.09-2.46-2.18-.21-.3-.5-.74-.82-1.24-.46.87-.81,1.68-.88,2.45-.59,0-.93.24-1,.3.32-.07.59-.09.8-.09.44,0,.65.1.67.1.07.07.12.17.14.31.03.41.15,1.77.17,2.08-.35-.07-.72-.1-1.1-.1-1.59,0-3.16.5-3.16.5,1.12-.18,2.01-.25,2.7-.25,1.03,0,1.63.15,1.95.28,0,0,4.31,5.12,6.34,8.24-.21-.39-1.9-3.53-3.47-5.78,1.27,1.29,2.8,3.06,4.38,5.31,0,0,.29.53.22.95-.05.31-.12.47-.15.53.04-.02.12-.06.27-.06.19,0,.49.06.95.3,1,.53,1.46.96,1.46.96,0,0,.13-.25.3-.25.02,0,.04,0,.06.01,0,0,2.2,3.41,3.02,8.69-.29,4.36-.04,7.71-.12,8.45,0,.04-.01.08-.02.11,0-.03.02-.06.02-.11.58-3.12.5-5.98.12-8.45.09-1.31.22-2.71.43-4.15.13.36,1.15,3.26,1.15,7.48,0,3.81-.85,8.71-3.95,13.76.05,0,.09.01.14.02,1.46-1.88,4.85-6.86,5.47-13.07,0,0,.05.62.05,1.59,0,2.12-.22,5.99-1.58,9.22,0,0,1.99-2.89,2.33-7.05.36,1.86.52,3.39.45,4.06-.05.52-.57,2.89-1.6,5.91,5.68.82,11.27,1.94,16.48,3.45-18.73-1.46-41-1.73-41-1.73,39.47,1.24,56.42,8.21,56.42,8.21-19.9-1.55-38.81-2.34-57.75-2.34s-36.45.74-55.6,2.25c20.01-8.33,32.4-11.08,40.09-12.77.05-1.91.2-3.21.2-3.24.1.99.14,2.05.26,3.11.11-.02.22-.05.33-.07.33-4.98,2.44-9.71,2.53-9.93-.75,1.92-.44,3.75-.44,5.48,0,1.41.09,2.73.21,3.93.25-.06.49-.11.73-.17.14-8.43,2.98-14.53,2.98-14.53l-1.24-.12s-2.16-.24-4.09-.31c1.86-.1,3.56-.29,3.56-.29-.64.03-1.36.05-2.1.05-3.14,0-6.68-.23-6.68-.23-.26-.12-.5-.24-.77-.41-1.33-.84-1.65-.36-1.72-3.11,2.05.4,4.4.5,6.23.5s3.05-.09,3.05-.09c-.39,0-.77.01-1.14.01-5.33,0-8.76-.94-8.76-.94-.93-.41-2.61-1.27-2.87-2.4-.31-1.22.87-6.6,3.37-11.05-1.39,3.42-2.07,6.63-2.18,7.2,1.54-5.65,4.32-9.94,5.34-11.39.12-.14.24-.34.36-.5v-.03c.36-.5.65-1.12.79-1.79,0,0-.72-.82-1.24-2.08-.02-.03-.02-.08-.05-.1.4.21.57.73.64.82-.41-1.18-1.42-1.87-1.42-1.87-.24-.22-.39-.38-.39-.72.05-.67.15-.67.15-.67,0,0-.65-.34-.43-1.75,0,0-.17-.34-.08-.48,0,0-1.12-.7-1.48-1.05-.36-.36-.41-.65-.17-1.17,0,0-3-3.02-2.59-3.46l-.21-.19s.5-.36.3-.36c1.17-1.13.9-1.75,1.03-1.98-1.09,1.65-2.06,2.29-2.06,2.29-.33-.14-.97-.6-.97-.6,0,0-.29-.02-.31-.17.49-.31,1.01-.93,1.19-1.16-.69.76-1.24,1.09-1.27,1.12-.04-.05-.14-.12-.14-.36.02-.34.65-1.49,2.03-3.45,1.39-1.94,1.92-2.39,2.28-2.49,0,0,0,0,.02,0,.06,0,.28.01.24.22,0,0,.27,0,.34.14,0,0-.16.51-.59.99.16-.16.51-.54.66-.85l.87.57s.29.63.38.7c.03.03.68.46,1.24.87l-1.12-.6,2.04,1.19.07.05.19.33,3.51,2.69-3.48-2.57,3.67,2.72.05.19,1,.72s-.29.12-.46.53c0,0,.38-.55,1.12-.6.02,0,.03,0,.05,0,.67,0,.73.97.67,1.65l.12-.34s0,0,.03,0c.1,0,.45.01.67.22.24.24.58.48.53.72l-.03.22.25.21c-.38.43-.84,1.08-1.06,1.44,1.29-1.77,2.07-1.92,2.07-1.92.24,0,1,.51,1.4.87l-1.31-.7,1.58.97c.02.22.17.34.17.34,0,0,.12-.36.38-.55.15-.11.55-.96,1.23-1.81h0s0-.09,0-.13c.03-.15.07-.28.12-.43,0-.05.03-.1.04-.16,0-.02,0-.04.02-.06-.25-.09-.55-.18-.56-.27,0-.05.06-.13.12-.23.08-.11.18-.23.22-.37.04-.12.19-.41.31-.64.08-.14.15-.25.18-.31h0v-.02s.02-.02.02-.02l.03-.02c.06-.14.17-.16.17-.16,0,0,.03,0,.09-.02s.15-.02.26-.04c.08-.16.16-.31.25-.46.64-1.08,1.45-1.89,2.52-2.54,0-.02.03-.03.05-.04.27-.16.55-.3.85-.42.44-.18.9-.3,1.38-.34.85-.06,1.69-.16,2.54-.16m-28.63,3.51c.23-.23.63-.66,1.02-1.11.39-.41.8-.87,1.03-1.22.46-.7,1.03-1.82,1.28-2.34-.19.33-.54.93-.99,1.65,0,0-.41.31-.77.79-.24.36-.41.77-.51.98-.33.44-.71.82-1.07,1.25m11.89,3.54c-.24.34-.31,1.07-.33,1.29,0,.5-.12,1.26-.41,1.91-.19.44-.48.73-.87.87-.02,0-.07.02-.18.02-.13,0-.32-.03-.61-.16-.14-.08-.24-.12-.34-.17-.33-.17-.53-.27-1.31-.32-.5-.02-.86-.04-1.26-.19-.32-.09-.51-.09-1.53-.58.65.39,1.07.61,1.5.75.41.12.77.17,1.27.19.77.03.95.12,1.26.29.1.05.22.1.34.15.48.22.76.24.86.24.03,0,.04,0,.04,0h.03c.43-.17.72-.56.92-1.03.29-.65.41-1.43.44-1.94.02-.73.13-1.2.16-1.31m.95,11.34c.13-.69.44-1.74.75-2.32.22-.43.32-.87.32-1.44,0-.55-.1-1.21-.29-2.15-.39-1.77.05-3.08.21-3.54v-.02c.08-.24.1-.82.05-1.08,0,0-.05.63-.19,1.03v.02c-.17.48-.6,1.82-.22,3.64.2.9.29,1.58.29,2.1,0,.56-.09.96-.31,1.37-.36.68-.55,1.96-.61,2.39m4.47-7.01s-.02,0-.03,0c-.12-.02-.34-.12-.44-.19,0,0-.12.1-.12.36,0,.29.05.89.05.89,0,0,.12-.33.43-.55.34-.24.61-.55.61-.75,0,0-.02,0-.06,0-.04,0-.09.01-.14.06-.08.09-.21.19-.3.19m-6.5,18.28c2.64,0,4.48-.52,5.25-.58h.14c-2.05.91-5.23,1.22-5.23,1.22,4.47,0,6.93-1.39,6.93-1.39.68-.12,1.36-.31,1.96-.72.85-.58,2.25-1.31,3.01-1.7.63-.26,1.65-.62,3.23-.84,0,0-1.48,0-2.79.34-.12-.24-.32-.6-.36-.98-.05-.36-.34-.89-.7-1.24.54.2.83.55.93.71-.29-.73-.93-.94-1.36-1.01-.05,0-.1-.02-.12-.02-.04,0-.08,0-.11,0-.08,0-.15,0-.23,0-.46.09-1,.43-2.71.72-.05,0-.09.02-.14.02.21-.12.42-.29.47-.33-.36.23-.78.3-1.15.3-.55,0-1-.15-1.04-.16-.92-.34-1.37-.95-1.37-.95l.58.19c-1.89-1.27-.74-3.16-.74-3.16-.24.77.14,1.65.14,1.65,0,0-.17-1.24.24-2.03.41-.79.77-1,.77-1,.23.74,0,1.38-.07,1.59.53-.73.22-2.03.24-2.5.02-.46.48-.29.53-.56.05-.24-.55-.45-.63-.74-.07-.29.41-1.12.41-1.12l-.48-.05c-.55,1.48-.67,1.55-1.1,1.84-.4.29-.86.75-.86.75-.77,1-1.51.89-1.79,1.6-.37,1.55-1.56,3.83-2.06,5.62-.51,1.77-.39,4.26-.39,4.26l-.91.24c.52.04,1.02.06,1.49.06m3.31,18.59s0,0,0,0c0,0,0,0,0,0m-10.07-52.73l-.97.11c-1.25.44-2.2,1.53-3.65,3.54-1.43,2.03-2.06,3.17-2.35,3.93l-.2.73c-.02.12-.03.24-.04.35v.09s0,.09,0,.09c0,.45-.5.82-.18,1.42l4.54,4.48c.19.92.71,1.61,1.12,2.02.18.18.42.38.67.57.05.45.15.86.29,1.23v.04c0,1.67,1.02,2.61,1.36,2.92l.07.06.05.15.09.14c.16.36.33.69.5.98l-.38.52v.04c-.63.91-3.14,4.17-3.14,4.17-2.53,4.49-4.28,10.81-3.67,13.24.36,1.51,1.54,2.83,3.51,3.88.2,1.55.77,2.77,2.58,3.7.12.06.27.13.44.24.42.27.79.45,1.1.59l.5.23.55.04c.12,0,2.58.17,5.25.22l-.74,1.86c-.45,1.06-1.7,4.17-2.36,7.85,0,0-.08.71-1.06,1-7.74,1.73-19.88,4.74-38.37,12.44l-17.31,7.21,18.69-1.48c19.07-1.51,37.19-2.24,55.37-2.24s37.31.76,57.52,2.33l18.91,1.47-15.84-6.5,10.63.83-28.07-8.11c-4.09-1.18-9.69-2.1-14.53-2.91.27-1.7.08-3.52.12-4.03.14-1.32-.07-7.02-.22-8.99l-1.94-11.25-.66,4.87-3.01-9.92-.99,4.37-.82-1.92c-.29-.12-.59-.2-.9-.23-.14-.09-.3-.18-.46-.27-.1-.27-.21-.49-.29-.63l-.08-.14-.09-.13c-1.34-1.92-2.83-3.74-4.31-5.3.15-.05.28-.1.42-.16,1.46-.64,2.48-1.8,2.77-3.11.07-.32.08-.59.08-.78v-.19l-.02-.18c-.05-.4-.16-.72-.24-.95l-.02-.06-.03-.08c-.41-1.01-1.39-2.46-1.72-2.95l-1.07-1.66c.37-1.2.77-3.07.66-5.25-.04-.83-.13-1.61-.28-2.36-.16-.8-.4-1.58-.73-2.32l-.03-.07-.02-.03s-.05-.1-.08-.16c-.56-1.17-1.35-2.11-1.99-2.88l-.09-.11-.07-.07-.04-.04c-.06-.07-.11-.13-.17-.2-.23-.26-.52-.58-.84-.9l-1.22-1.1-.86-.52c-.4-.24-.83-.48-1.33-.72-.2-.1-.43-.21-.67-.31l-.04-.02-.09-.04c-.06-.03-.11-.05-.17-.08l-.03-.03-.58-.23c-.63-.25-1.46-.55-2.42-.72-.39-.07-.74-.12-1.09-.14-.08,0-.17-.02-.27-.02-.13,0-.26,0-.38,0-.74,0-1.42.06-2.08.12-.23.02-.46.04-.68.06-.79.06-1.56.25-2.3.55-.4.16-.79.35-1.19.58-.12.06-.22.13-.32.21-1.27.8-2.28,1.79-3.08,3.02-.17.11-.32.24-.47.38l-.31.21-.15.29-.56.56v.48c-.08.15-.15.29-.2.41l-.02.03-.07.11c-.08.13-.24.38-.36.71-.05,0-.1,0-.15-.01-.04-.03-.08-.07-.12-.1-.16-.35-.37-.67-.62-.95-.54-.6-1.25-.99-2.04-1.11l-.9-.5h0s-.01-.03-.01-.03h0s-.03-.03-.03-.03l-.15-.27-.53-.38-.07-.05-.11-.08-.12-.07-.7-.41s-3.34-2.66-3.56-2.81l-.42-.47-.61-.68-.37-.24c-.2-.22-.42-.41-.67-.57-.33-.27-.6-.28-1.01-.41l-.61-.05Z"/></g></mask></defs><g class="cls-2"><polygon class="cls-1" points="58.31 62.29 58.25 62.3 58.23 62.25 58.31 62.29"/><polygon class="cls-1" points="76.1 85.83 76.1 98.12 74.87 97.7 71.96 96.69 70.77 93.71 70.77 87.68 76.1 85.83"/><polygon class="cls-1" points="83.57 83.26 83.57 100.7 78.25 98.86 78.25 85.09 83.57 83.26"/><polygon class="cls-1" points="91.03 80.68 91.03 103.28 85.72 101.44 85.72 82.52 91.03 80.68"/><polygon class="cls-1" points="98.51 78.1 98.51 105.86 93.18 104.02 93.18 79.94 98.51 78.1"/><polygon class="cls-1" points="105.98 78.74 105.98 108.44 100.66 106.6 100.66 77.36 101.31 77.13 105.98 78.74"/><polygon class="cls-1" points="113.45 81.32 113.45 93.73 108.13 107.1 108.13 79.47 113.45 81.32"/><polygon class="cls-1" points="117.8 82.82 117.78 82.88 117.77 82.88 115.6 88.34 115.6 82.06 117.8 82.82"/><polygon class="cls-1" points="61.15 61.31 61.15 69.59 58.25 62.3 58.31 62.29 61.15 61.31"/><polygon class="cls-1" points="68.62 58.72 68.62 88.33 63.29 74.97 63.29 60.56 68.62 58.72"/><polygon class="cls-1" points="76.1 56.14 76.1 85.83 70.77 87.68 70.77 57.97 76.1 56.14"/><polygon class="cls-1" points="83.57 53.56 83.57 83.26 78.25 85.09 78.25 55.39 83.57 53.56"/><polygon class="cls-1" points="91.03 50.98 91.03 80.68 85.72 82.52 85.72 52.83 91.03 50.98"/><polygon class="cls-1" points="98.51 52.16 98.51 78.1 93.18 79.94 93.18 50.32 98.51 52.16"/><polygon class="cls-1" points="105.98 54.74 105.98 75.52 101.31 77.13 100.66 77.36 100.66 52.9 105.98 54.74"/><polygon class="cls-1" points="113.45 57.32 113.45 72.94 108.13 74.78 108.13 55.48 113.45 57.32"/><polygon class="cls-1" points="120.92 59.9 120.92 70.36 115.6 72.2 115.6 58.06 120.92 59.9"/><polygon class="cls-1" points="126.21 61.72 123.07 69.59 123.07 60.64 126.21 61.72"/><polygon class="cls-1" points="38.74 1.83 38.74 13.36 33.41 0 33.45 0 38.74 1.83"/><polygon class="cls-1" points="46.21 4.41 46.21 32.1 40.89 18.75 40.89 2.57 46.21 4.41"/><polygon class="cls-1" points="53.68 6.99 53.68 36.69 48.36 34.85 48.36 5.15 53.68 6.99"/><polygon class="cls-1" points="61.15 9.57 61.15 39.26 55.83 37.43 55.83 7.73 61.15 9.57"/><polygon class="cls-1" points="68.62 12.15 68.62 41.84 63.3 40.01 63.3 10.31 68.62 12.15"/><polygon class="cls-1" points="76.1 14.73 76.1 44.42 70.77 42.59 70.77 12.89 76.1 14.73"/><polygon class="cls-1" points="83.56 17.3 83.56 47 78.25 45.17 78.25 15.47 83.56 17.3"/><polygon class="cls-1" points="91.04 19.88 91.04 49.58 85.71 47.74 85.71 18.05 91.04 19.88"/><polygon class="cls-1" points="98.51 22.47 98.51 52.16 93.18 50.32 93.18 20.62 98.51 22.47"/><polygon class="cls-1" points="105.98 25.04 105.98 54.74 100.66 52.9 100.66 23.21 105.98 25.04"/><polygon class="cls-1" points="113.45 27.62 113.45 57.32 108.13 55.48 108.13 25.78 113.45 27.62"/><polygon class="cls-1" points="120.92 30.2 120.92 59.9 115.6 58.06 115.6 28.36 120.92 30.2"/><polygon class="cls-1" points="128.4 32.79 128.4 56.23 126.21 61.72 123.07 60.64 123.07 30.94 128.4 32.79"/><polygon class="cls-1" points="136.68 35.67 130.55 50.83 130.55 33.52 136.68 35.67"/></g><path class="cls-1" d="m57.4,91.75s21.21-1.91,41,1.73c-5.21-1.51-10.8-2.63-16.48-3.45,1.03-3.01,1.55-5.39,1.6-5.91.07-.67-.09-2.2-.45-4.06-.34,4.16-2.33,7.05-2.33,7.05,1.36-3.23,1.58-7.1,1.58-9.22,0-.97-.05-1.58-.05-1.59-.62,6.22-4.01,11.19-5.47,13.07-.05,0-.09-.01-.14-.02,3.1-5.05,3.95-9.95,3.95-13.76,0-4.22-1.02-7.12-1.15-7.48,1.52,6.48-.39,12.2-.57,12.71,1.89-9.86-2.88-17.25-2.88-17.25-.19-.08-.36.24-.36.24,0,0-.46-.44-1.46-.96-.84-.44-1.14-.29-1.22-.24.03-.06.1-.22.15-.53.07-.43-.22-.95-.22-.95-1.57-2.25-3.1-4.02-4.38-5.31,1.57,2.25,3.26,5.39,3.47,5.78-2.03-3.11-6.34-8.24-6.34-8.24-.53-.22-1.84-.49-4.64-.03,0,0,2.4-.77,4.26-.41-.02-.31-.14-1.67-.17-2.08-.02-.14-.07-.24-.14-.31-.02,0-.47-.22-1.46,0,.07-.06.42-.3,1-.3.07-.77.42-1.58.88-2.45.32.51.61.94.82,1.24.79,1.08,1.67,1.84,2.46,2.18.39.18.75.24,1.06.18.13,0,.25-.05.37-.09.07-.02.13-.04.2-.07.57-.25.96-.68,1.03-1.01,0-.04,0-.09,0-.13,0-.08-.05-.19-.1-.33-.34-.83-1.44-2.43-1.44-2.43l-1.75-2.73-.24-.37c.08-.04.13-.09.17-.13.05-.05.07-.09.07-.09,0,0,.02-.03.05-.1.02-.07.06-.16.1-.27.27-.75.82-2.54.7-4.71-.03-.65-.1-1.29-.23-1.93-.12-.6-.3-1.17-.54-1.72-.02-.04-.03-.07-.05-.1-.4-.86-1.02-1.61-1.62-2.33-.11-.11-.2-.23-.31-.35-.26-.3-.54-.61-.83-.88-.23-.22-.45-.42-.69-.6-.02,0-.05-.03-.07-.05t0,0s-.04-.03-.06-.04c-.08-.06-.17-.12-.26-.18-.45-.3-.92-.56-1.41-.8-.2-.1-.41-.2-.62-.29-.02,0-.05-.02-.07-.03-.19-.09-.39-.17-.58-.25-.02,0-.04-.02-.06-.02,0,0-.02,0-.03-.02-.61-.24-1.22-.45-1.86-.56-.26-.05-.54-.09-.81-.1-.03,0-.06,0-.09,0-.96-.03-1.9.09-2.85.16-.49.04-.94.16-1.38.34-.3.12-.58.26-.85.42-.02,0-.04.02-.05.04-1.06.65-1.88,1.45-2.52,2.54-.09.15-.17.3-.25.46-.11.02-.2.03-.26.04s-.09.02-.09.02c0,0-.11.02-.17.16l-.03.02v.02s0,0-.02,0h0c-.03.07-.1.18-.18.32-.12.23-.27.52-.31.64-.04.14-.14.26-.22.37-.06.1-.12.18-.12.23,0,.09.31.18.56.27,0,.02,0,.04-.02.06,0,.06-.03.11-.04.16-.05.15-.09.28-.12.43,0,.04,0,.08,0,.12h0c-.69.86-1.08,1.71-1.23,1.82-.26.19-.38.55-.38.55,0,0-.15-.12-.17-.34l-.27-.28c-.4-.36-1.16-.87-1.4-.87,0,0-.78.15-2.07,1.92.23-.36.69-1.01,1.06-1.44l-.25-.21.03-.22c.05-.24-.29-.48-.53-.72-.26-.24-.7-.22-.7-.22l-.12.34c.07-.7,0-1.7-.72-1.65-.75.05-1.12.6-1.12.6.17-.41.46-.53.46-.53l-1-.72-.05-.19-.82-.56-.19-.33-.07-.05s-6.58-4.54-6.61-4.57c-.09-.07-.38-.7-.38-.7l-.87-.57c-.15.31-.5.69-.66.85.43-.49.59-.99.59-.99-.07-.14-.34-.14-.34-.14.05-.24-.26-.22-.26-.22-.36.1-.89.55-2.28,2.49-1.38,1.96-2.01,3.11-2.03,3.45,0,.24.1.31.14.36.03-.03.59-.37,1.27-1.12-.18.23-.71.86-1.19,1.16.02.15.31.17.31.17,0,0,.65.46.97.6,0,0,.96-.64,2.06-2.29-.13.23-.72,1.2-1.89,2.34h.56l4.66,3.3c-.41.44-.29,1.17-.29,1.17-.24.53-.19.82.17,1.17.36.36,1.48,1.05,1.48,1.05-.09.14.08.48.08.48-.22,1.41.43,1.75.43,1.75,0,0-.1,0-.15.67,0,.34.15.5.39.72,0,0,1.01.69,1.42,1.87-.07-.09-.34-.49-.64-.82.03.02.03.07.05.1.53,1.26,1.24,2.08,1.24,2.08-.14.67-.43,1.29-.79,1.79v.03c-.12.16-.24.36-.36.5-1.02,1.45-3.8,5.74-5.34,11.39.11-.57.79-3.78,2.18-7.2-2.51,4.45-3.68,9.83-3.37,11.05.27,1.12,1.94,1.99,2.87,2.4,0,0,3.92,1.07,9.9.92,0,0-5.23.39-9.28-.41.07,2.76.39,2.28,1.72,3.11.27.17.51.29.77.41,0,0,5.41.36,8.78.19,0,0-1.7.19-3.56.29,1.93.07,4.09.31,4.09.31l1.24.12s-2.84,6.1-2.98,14.53c-.24.06-.48.11-.73.17-.12-1.2-.21-2.52-.21-3.93,0-1.73.13-3.59.45-5.49,0,.02-2.19,4.85-2.53,9.94-.11.02-.22.05-.33.07-.12-1.06-.22-2.19-.26-3.11,0,.03-.18,1.3-.24,3.22-7.69,1.69-20.04,4.46-40.05,12.8,39.07-3.09,74.32-2.94,113.35.09,0,0-16.96-6.96-56.42-8.21Zm-10.79-51.87c.1.07.32.17.44.19.09.03.24-.09.33-.19.1-.09.2-.05.2-.05,0,.2-.27.51-.61.75-.31.22-.43.55-.43.55,0,0-.05-.6-.05-.89,0-.26.12-.36.12-.36Zm-3.39,4.81c.22-.41.31-.82.31-1.37,0-.52-.09-1.19-.29-2.1-.38-1.82.05-3.16.22-3.64v-.02c.14-.41.19-1.03.19-1.03.05.27.03.85-.05,1.08v.02c-.16.46-.6,1.77-.21,3.54.19.93.29,1.6.29,2.15,0,.58-.1,1.01-.32,1.44-.31.58-.62,1.63-.75,2.32.06-.43.25-1.71.61-2.39Zm-12.96-15.65c-.24.36-.65.82-1.03,1.22-.4.46-.8.89-1.02,1.11.37-.44.41-.54.74-.98.1-.22.61-.9.85-1.26.36-.48.98-1.22.98-1.22.46-.72.59-.89.78-1.22-.25.52-.83,1.64-1.28,2.34Zm7.35,10.31c-.51-.02-.87-.07-1.27-.19-.43-.14-.86-.36-1.5-.75,1.02.49,1.21.49,1.53.58.41.15.77.17,1.26.19.79.05.98.15,1.31.32.1.05.2.09.34.17.53.24.75.14.79.14.39-.14.68-.43.87-.87.29-.65.41-1.41.41-1.91.02-.22.09-.95.33-1.29-.03.11-.14.59-.16,1.31-.03.51-.15,1.29-.44,1.94-.21.48-.5.87-.92,1.03h-.03s-.29.04-.91-.24c-.12-.05-.24-.1-.34-.15-.31-.17-.5-.26-1.26-.29Zm3.13,19.64s3.18-.32,5.23-1.22h-.14c-.91.07-3.3.79-6.74.53l.91-.24s-.12-2.49.39-4.26c.5-1.79,1.69-4.07,2.06-5.62.28-.72,1.02-.6,1.79-1.6,0,0,.46-.46.86-.75.44-.29.56-.36,1.1-1.84l.48.05s-.48.84-.41,1.12c.08.29.68.5.63.74-.05.27-.51.1-.53.56-.02.47.14,1.51-.19,2.42-.31.96-.3,3.71,2.59,3.66-.05.04,1.92-.32,2.38-.41.08,0,.15,0,.23,0,.03,0,.07,0,.11,0,.02,0,.07.02.12.02.43.07,1.07.29,1.36,1.01-.11-.16-.4-.51-.93-.71.36.36.65.89.7,1.24.04.39.24.75.36.98,1.31-.34,2.79-.34,2.79-.34-1.58.22-2.61.58-3.23.84-.77.39-2.17,1.12-3.01,1.7-.6.41-1.28.6-1.96.72,0,0-2.47,1.39-6.93,1.39Z"/></svg>