<?xml version="1.0" encoding="UTF-8"?><svg id="Layer_1" xmlns="http://www.w3.org/2000/svg" viewBox="0 0 411.47 336"><defs><style>.cls-1{fill:#858c8b;}.cls-1,.cls-2{stroke-width:0px;}.cls-2{fill:#afafaf;}</style></defs><rect class="cls-2" width="411.47" height="336"/><polygon class="cls-1" points="62 341 212.67 114.65 363.33 341 62 341"/><path class="cls-2" d="m212.67,123.67l141.33,212.33H71.33L212.67,123.67m0-18.05l-8.32,12.51L63.01,330.46l-10.34,15.54h320l-10.34-15.54L220.99,118.13l-8.32-12.51h0Z"/><polygon class="cls-1" points="-36.67 341 114 114.65 264.67 341 -36.67 341"/><path class="cls-2" d="m114,123.67l141.33,212.33H-27.33L114,123.67m0-18.05l-8.32,12.51L-35.66,330.46l-10.34,15.54h320.01l-10.34-15.54L122.32,118.13l-8.32-12.51h0Z"/><circle class="cls-1" cx="326.67" cy="84.86" r="49"/><path class="cls-2" d="m326.67,40.86c24.3,0,44,19.7,44,44s-19.7,44-44,44-44-19.7-44-44,19.7-44,44-44m0-10c-29.78,0-54,24.22-54,54s24.22,54,54,54,54-24.22,54-54-24.22-54-54-54h0Z"/></svg>