<?xml version="1.0" encoding="UTF-8"?><svg id="Layer_1" xmlns="http://www.w3.org/2000/svg" viewBox="0 0 137.15 114.09"><defs><style>.cls-1{stroke-width:0px;}</style></defs><path class="cls-1" d="m2.76,97.1l-.42,1.11c-.12.33-.17.51-.17.69,0,.36.22.45,1.09.48v.58c-.81-.05-1.18-.06-1.62-.06S.81,99.91,0,99.95v-.58c1.03-.03,1.28-.25,1.82-1.56l3.46-8.71,3.41,9.18c.33.86.59,1.04,1.57,1.09v.58c-.94-.08-1.47-.11-2.35-.11s-1.42.03-2.35.11v-.58c.95-.03,1.12-.11,1.12-.42,0-.08-.06-.41-.12-.58l-.39-1.28h-3.41Zm3.21-.64l-1.36-4.08-1.61,4.08h2.96Z"/><path class="cls-1" d="m14.15,98.28c0,.92.17,1.06,1.31,1.09v.58c-.94-.08-1.43-.11-2.24-.11s-1.36.03-2.38.11v-.58c1.15-.03,1.32-.17,1.32-1.09v-7.11c0-.92-.17-1.06-1.32-1.09v-.58h4.58c1.2,0,1.84.14,2.45.53.76.48,1.25,1.37,1.25,2.31s-.44,1.71-1.15,2.14c-.37.23-.69.34-1.34.5.75.25,1.01.51,1.5,1.5l.86,1.84c.39.87.61,1.04,1.29,1.06v.58c-.58-.03-.9-.05-1.31-.05s-.72.02-1.31.05c-.19-.3-.25-.44-.47-.94l-1.09-2.52c-.47-1.06-.73-1.28-1.54-1.28h-.39v3.07Zm.86-3.66c.72,0,1.15-.14,1.48-.5.37-.39.56-1,.56-1.75,0-.7-.16-1.28-.47-1.7-.3-.39-.75-.58-1.47-.58h-.9v4.52h.79Z"/><path class="cls-1" d="m25.84,98.28c0,.94.16,1.06,1.31,1.09v.58c-.94-.08-1.47-.11-2.34-.11s-1.4.03-2.35.11v-.58c1.17-.03,1.33-.16,1.33-1.09v-8.18h-.47c-1.26,0-1.85.61-2.24,2.29h-.53l.5-2.88h7.54l.5,2.88h-.55c-.39-1.7-.97-2.29-2.21-2.29h-.48v8.18Z"/><path class="cls-1" d="m36.59,89.46c.69.03,1.06.05,1.61.05s.94-.02,1.62-.05v.58c-1.15.02-1.32.17-1.32,1.09v5.07c0,1.22-.17,1.87-.65,2.54-.65.87-1.71,1.34-3.09,1.34-1.25,0-2.29-.42-2.96-1.18-.56-.62-.78-1.36-.78-2.54v-5.22c0-.92-.17-1.08-1.32-1.09v-.58c1.04.08,1.59.11,2.35.11s1.31-.03,2.34-.11v.58c-1.14.02-1.31.17-1.31,1.09v5.61c0,1.65.72,2.43,2.24,2.43,1.01,0,1.85-.42,2.24-1.11.25-.45.34-1,.34-2.01v-4.93c0-.92-.17-1.08-1.31-1.09v-.58Z"/><path class="cls-1" d="m43.87,98.28c0,.92.17,1.06,1.31,1.09v.58c-.94-.08-1.43-.11-2.24-.11s-1.36.03-2.38.11v-.58c1.15-.03,1.32-.17,1.32-1.09v-7.11c0-.92-.17-1.06-1.32-1.09v-.58h4.58c1.2,0,1.84.14,2.45.53.76.48,1.25,1.37,1.25,2.31s-.44,1.71-1.15,2.14c-.37.23-.69.34-1.34.5.75.25,1.01.51,1.5,1.5l.86,1.84c.39.87.61,1.04,1.29,1.06v.58c-.58-.03-.9-.05-1.31-.05s-.72.02-1.31.05c-.19-.3-.25-.44-.47-.94l-1.09-2.52c-.47-1.06-.73-1.28-1.54-1.28h-.39v3.07Zm.86-3.66c.72,0,1.15-.14,1.48-.5.37-.39.56-1,.56-1.75,0-.7-.16-1.28-.47-1.7-.3-.39-.75-.58-1.47-.58h-.9v4.52h.79Z"/><path class="cls-1" d="m51.55,96.51c.11.81.27,1.23.56,1.73.47.72,1.32,1.2,2.17,1.2,1.12,0,1.99-.78,1.99-1.78,0-.55-.28-1.08-.8-1.48-.34-.25-.5-.34-1.47-.89-1.23-.67-1.75-1.01-2.09-1.37-.5-.51-.75-1.14-.75-1.85,0-1.64,1.33-2.73,3.3-2.73.98,0,1.57.23,2.31.9l.51-1h.34v3.21h-.53c-.3-1.67-1.11-2.54-2.35-2.54-1.04,0-1.79.69-1.79,1.64,0,.7.26.98,1.53,1.68.86.47,1.65.92,2.03,1.15,1.11.7,1.54,1.43,1.54,2.57,0,1.82-1.37,3.12-3.3,3.12-1.06,0-1.85-.28-2.81-1.01l-.61,1.18h-.34v-3.74h.55Z"/><path class="cls-1" d="m66.45,98.28c0,.94.16,1.06,1.31,1.09v.58c-1.01-.08-1.56-.11-2.34-.11s-1.33.03-2.35.11v-.58c1.15-.03,1.32-.17,1.32-1.09v-7.11c0-.92-.17-1.06-1.32-1.09v-.58h4.57c1.2,0,1.85.14,2.46.51.79.5,1.31,1.45,1.31,2.45s-.48,1.92-1.25,2.45c-.56.39-1.32.58-2.31.58h-1.4v2.79Zm.67-3.38c1.51,0,2.23-.76,2.23-2.38s-.69-2.42-2.18-2.42h-.72v4.8h.67Z"/><path class="cls-1" d="m76.94,99.95c-1.01-.08-1.56-.11-2.34-.11s-1.33.03-2.35.11v-.58c1.15-.03,1.32-.17,1.32-1.09v-7.15c0-.92-.17-1.08-1.32-1.09v-.58c1.04.08,1.59.11,2.35.11s1.31-.03,2.34-.11v.58c-1.14.02-1.31.17-1.31,1.09v7.15c0,.92.16,1.06,1.31,1.09v.58Z"/><path class="cls-1" d="m81.07,98.28c0,.92.17,1.06,1.31,1.09v.58c-.94-.08-1.43-.11-2.24-.11s-1.36.03-2.38.11v-.58c1.15-.03,1.32-.17,1.32-1.09v-7.11c0-.92-.17-1.06-1.32-1.09v-.58h4.58c1.2,0,1.84.14,2.45.53.76.48,1.25,1.37,1.25,2.31s-.44,1.71-1.15,2.14c-.37.23-.69.34-1.34.5.75.25,1.01.51,1.5,1.5l.86,1.84c.39.87.61,1.04,1.29,1.06v.58c-.58-.03-.9-.05-1.31-.05s-.72.02-1.31.05c-.19-.3-.25-.44-.47-.94l-1.09-2.52c-.47-1.06-.73-1.28-1.54-1.28h-.39v3.07Zm.86-3.66c.72,0,1.15-.14,1.48-.5.37-.39.56-1,.56-1.75,0-.7-.16-1.28-.47-1.7-.3-.39-.75-.58-1.47-.58h-.9v4.52h.79Z"/><path class="cls-1" d="m90.25,97.1l-.42,1.11c-.12.33-.17.51-.17.69,0,.36.22.45,1.09.48v.58c-.81-.05-1.18-.06-1.62-.06s-.83.02-1.64.06v-.58c1.03-.03,1.28-.25,1.82-1.56l3.46-8.71,3.41,9.18c.33.86.59,1.04,1.57,1.09v.58c-.94-.08-1.47-.11-2.35-.11s-1.42.03-2.35.11v-.58c.95-.03,1.12-.11,1.12-.42,0-.08-.06-.41-.12-.58l-.39-1.28h-3.41Zm3.21-.64l-1.36-4.08-1.61,4.08h2.96Z"/><path class="cls-1" d="m103.58,90.1h-1.51c-1.4,0-2.01.5-2.62,2.12h-.55l.47-2.71h6.8l-5.28,9.8h2.38c.98,0,1.4-.19,1.92-.86.33-.44.55-.89.78-1.62h.55l-.53,3.07h-7.68l5.28-9.8Z"/><path class="cls-1" d="m114.03,90.91c.22-.23.28-.36.28-.5,0-.26-.17-.33-1-.37v-.58c.75.05,1.17.06,1.71.06s.98-.02,1.73-.06v.58c-.83.03-1.33.26-1.93.9l-2.03,2.17,2.98,5.07c.61.98.9,1.17,1.78,1.2v.58c-1-.09-1.56-.12-2.37-.12s-1.37.03-2.37.12v-.58c.84-.05,1-.12,1-.42,0-.12-.02-.16-.22-.51l-2.1-3.94-.89.95v2.84c0,.92.12,1.03,1.18,1.09v.58c-.76-.08-1.25-.11-2.12-.11s-1.43.03-2.38.11v-.58c1.15-.03,1.32-.17,1.32-1.09v-7.15c0-.92-.17-1.08-1.32-1.09v-.58c1.04.08,1.59.11,2.38.11s1.31-.03,2.24-.11v.58c-1.14.02-1.31.17-1.31,1.09v3.57l3.43-3.79Z"/><path class="cls-1" d="m125.8,90.85c.72.92,1.11,2.28,1.11,3.91,0,3.29-1.79,5.39-4.6,5.39s-4.55-2.09-4.55-5.42,1.78-5.47,4.57-5.47c1.42,0,2.65.58,3.48,1.59Zm-5.91,3.76c0,1.89.3,3.43.8,4.16.41.59.95.89,1.65.89,1.64,0,2.43-1.64,2.43-4.99s-.75-4.91-2.37-4.91-2.51,1.71-2.51,4.85Z"/><path class="cls-1" d="m131.88,100.15c-.12-.42-.33-.95-.79-2.15l-2.56-6.66c-.42-1.04-.61-1.23-1.4-1.31v-.58c.9.08,1.42.11,2.26.11s1.36-.03,2.26-.11v.58c-.84.05-1.09.16-1.09.48,0,.17.02.23.2.75l2.1,5.72,2.15-5.74c.2-.51.22-.59.22-.76,0-.31-.22-.42-1.03-.45v-.58c.62.03.98.05,1.47.05s.84-.02,1.48-.05v.58c-.75.08-1.14.39-1.42,1.12l-2.7,6.95c-.25.64-.41,1.04-.73,2.04h-.42Z"/><path class="cls-1" d="m111.72,6.03c-3.96-2.94-8.71-4.08-16.4-4.08h-28.51v2.27c8.15.68,9.28,1.47,9.28,7.35v31.83l7.58,20.38v-21.11h12.67c6.56,0,11.09-1.24,15.16-4.07,5.2-3.73,8.03-9.27,8.03-15.95s-3.06-13.01-7.81-16.62Zm-5.78,30.31c-2.71,2.14-6.44,3.16-11.76,3.16h-10.51V5.12h11.42c6.11,0,9.73,1.13,12.45,3.96,2.82,2.94,4.4,7.58,4.4,12.9,0,6.22-2.14,11.42-6,14.36Z"/><path class="cls-1" d="m81.13,67.04L56.2,0l-25.27,63.62c-3.98,9.56-5.8,11.15-13.32,11.38v4.21h23.79v-4.21c-6.38-.23-7.97-.91-7.97-3.53,0-1.25.34-2.62,1.25-5.01l3.07-8.08h24.93l2.85,9.33c.46,1.25.91,3.64.91,4.21,0,2.28-1.25,2.85-8.19,3.07v4.21h34.37v-4.21c-7.17-.34-9.1-1.71-11.49-7.97Zm-41.55-13.32l11.72-29.82,9.9,29.82h-21.63Z"/><path class="cls-1" d="m40.56,112.76c0,.71.12.8,1.05.86v.35c-.75-.06-1.13-.09-1.67-.09s-.93.03-1.68.09v-.35c.95-.06,1.07-.17,1.07-.86v-6.2c0-.71-.12-.8-1.07-.86v-.35h5.72l.26,2.01h-.32c-.32-1.27-.63-1.59-1.57-1.59h-1.79v3.5h1.74c.58,0,.72-.19.76-1.05h.36v2.55h-.36c-.03-.84-.19-1.08-.75-1.08h-1.75v3.09Z"/><path class="cls-1" d="m52.2,109.68c0,2.66-1.39,4.41-3.51,4.41s-3.54-1.74-3.54-4.48,1.39-4.44,3.51-4.44,3.54,1.74,3.54,4.5Zm-5.75-.09c0,2.64.81,4.13,2.25,4.13s2.2-1.47,2.2-4.08-.77-4.09-2.2-4.09-2.25,1.48-2.25,4.04Z"/><path class="cls-1" d="m56.88,112.74c0,.71.13.81,1.07.87v.35c-.75-.06-1.14-.09-1.68-.09s-.94.03-1.68.09v-.35c.94-.06,1.07-.17,1.07-.87v-6.98h-.62c-.94,0-1.27.33-1.65,1.65h-.35l.36-2.06h5.77l.36,2.06h-.33c-.35-1.3-.69-1.65-1.59-1.65h-.72v6.98Z"/><path class="cls-1" d="m67.42,109.68c0,2.66-1.39,4.41-3.51,4.41s-3.54-1.74-3.54-4.48,1.39-4.44,3.51-4.44,3.54,1.74,3.54,4.5Zm-5.75-.09c0,2.64.81,4.13,2.25,4.13s2.2-1.47,2.2-4.08-.77-4.09-2.2-4.09-2.25,1.48-2.25,4.04Z"/><path class="cls-1" d="m75.03,107.83h-.32c-.15-.58-.27-.85-.48-1.2-.39-.66-1.08-1.04-1.89-1.04-1.61,0-2.44,1.38-2.44,4s.81,4.09,2.4,4.09c.54,0,1.02-.13,1.67-.44v-2.2c0-.49-.17-.6-.99-.66v-.35c.69.06,1.07.08,1.52.08s.84-.01,1.52-.08v.35c-.8.06-.89.13-.89.68v2.04c-1.12.68-1.94.95-2.96.95-2.19,0-3.58-1.72-3.58-4.46s1.38-4.4,3.58-4.4c.86,0,1.47.22,2.11.77l.5-.8h.24v2.65Z"/><path class="cls-1" d="m78.96,112.74c0,.71.13.81,1.07.87v.35c-.75-.06-1.13-.09-1.66-.09s-.9.03-1.68.09v-.35c.95-.06,1.07-.17,1.07-.87v-6.19c0-.71-.12-.8-1.07-.86v-.35h3.52c.85,0,1.39.13,1.84.41.59.4.98,1.12.98,1.86s-.41,1.49-1.05,1.83c-.28.14-.55.23-1.04.33.57.17.8.4,1.13,1.13l.85,1.92c.28.64.44.76,1.05.78v.35c-.41-.03-.63-.04-.9-.04s-.49.01-.9.04c-.14-.27-.22-.44-.37-.78l-.96-2.26c-.36-.82-.63-1.03-1.41-1.03h-.45v2.86Zm1-3.27c1.2,0,1.83-.64,1.83-1.88s-.6-1.84-1.76-1.84h-1.04v3.72h.98Z"/><path class="cls-1" d="m86.42,111.48l-.41,1.14c-.13.37-.15.46-.15.59,0,.27.19.36.86.4v.35c-.57-.05-.87-.06-1.25-.06s-.68.01-1.25.06v-.35c.8-.05.98-.18,1.3-.99l2.91-7.56,2.69,7.75c.23.62.41.73,1.22.8v.35c-.69-.06-1.09-.09-1.65-.09s-.96.03-1.66.09v-.35c.64-.05.85-.14.85-.37,0-.08-.05-.33-.09-.45l-.41-1.31h-2.96Zm2.82-.44l-1.22-3.81-1.44,3.81h2.66Z"/><path class="cls-1" d="m95.2,112.76c0,.71.12.8,1.05.86v.35c-.75-.06-1.13-.09-1.67-.09s-.93.03-1.68.09v-.35c.95-.06,1.07-.17,1.07-.86v-6.2c0-.71-.12-.8-1.07-.86v-.35h5.72l.26,2.01h-.32c-.32-1.27-.63-1.59-1.57-1.59h-1.79v3.5h1.74c.58,0,.72-.19.76-1.05h.36v2.55h-.36c-.03-.84-.19-1.08-.75-1.08h-1.75v3.09Z"/><rect class="cls-1" x="23.35" y="109.13" width="8.36" height=".9"/><rect class="cls-1" x="105.44" y="109.13" width="8.36" height=".9"/></svg>