<?xml version="1.0" encoding="UTF-8"?><svg id="Layer_1" xmlns="http://www.w3.org/2000/svg" viewBox="0 0 135.48 52.73"><defs><style>.cls-1{fill:#05c19d;}.cls-1,.cls-2{stroke-width:0px;}</style></defs><path class="cls-1" d="m4.19,45.65v7.16H0v-20.32h7.93c1.53,0,2.87.28,4.03.84s2.05,1.35,2.67,2.38c.62,1.03.94,2.2.94,3.51,0,1.99-.68,3.56-2.04,4.71-1.36,1.15-3.25,1.72-5.66,1.72h-3.67Zm0-3.39h3.74c1.11,0,1.95-.26,2.53-.78.58-.52.87-1.27.87-2.23s-.29-1.8-.88-2.41-1.4-.93-2.43-.95h-3.84v6.38Z"/><path class="cls-1" d="m22.89,52.81h-4.19v-20.32h4.19v20.32Z"/><path class="cls-1" d="m34.29,45.37h-3.34v7.44h-4.19v-20.32h7.55c2.4,0,4.25.54,5.55,1.61,1.3,1.07,1.95,2.58,1.95,4.54,0,1.39-.3,2.54-.9,3.47s-1.51,1.66-2.73,2.21l4.4,8.3v.2h-4.49l-3.81-7.44Zm-3.34-3.39h3.38c1.05,0,1.87-.27,2.44-.8.58-.53.87-1.27.87-2.21s-.27-1.71-.82-2.26-1.38-.82-2.51-.82h-3.36v6.1Z"/><path class="cls-1" d="m56.48,48.62h-7.34l-1.4,4.19h-4.45l7.56-20.32h3.88l7.61,20.32h-4.45l-1.41-4.19Zm-6.21-3.39h5.08l-2.55-7.61-2.53,7.61Z"/><path class="cls-1" d="m68.68,49.44h10.24v3.36h-15.48v-2.46l10.05-14.47h-10.03v-3.39h15.24v2.4l-10.02,14.56Z"/><path class="cls-1" d="m87.93,44.66l-2.18,2.34v5.81h-4.19v-20.32h4.19v9.21l1.84-2.53,5.18-6.69h5.15l-7.22,9.03,7.43,11.29h-4.98l-5.22-8.15Z"/><path class="cls-1" d="m115.97,43.11c0,2-.35,3.75-1.06,5.26-.71,1.51-1.72,2.67-3.04,3.49-1.32.82-2.83,1.23-4.53,1.23s-3.19-.4-4.51-1.21c-1.32-.81-2.34-1.97-3.07-3.47s-1.09-3.23-1.1-5.19v-1c0-2,.36-3.76,1.08-5.28.72-1.52,1.74-2.69,3.06-3.5,1.32-.81,2.82-1.22,4.52-1.22s3.2.41,4.52,1.22c1.32.81,2.34,1.98,3.06,3.5.72,1.52,1.08,3.28,1.08,5.27v.91Zm-4.24-.92c0-2.13-.38-3.75-1.14-4.86-.76-1.11-1.85-1.66-3.27-1.66s-2.49.55-3.25,1.64c-.76,1.09-1.15,2.7-1.16,4.81v.99c0,2.08.38,3.68,1.14,4.83.76,1.14,1.86,1.72,3.29,1.72s2.48-.55,3.24-1.65c.75-1.1,1.13-2.71,1.14-4.82v-.99Z"/><path class="cls-1" d="m126.21,47.77l4.61-15.28h4.66l-7.08,20.32h-4.37l-7.05-20.32h4.65l4.58,15.28Z"/><path class="cls-2" d="m16.55,20.24H7.34l-1.75,5.25H0L9.49,0h4.87l9.54,25.5h-5.59l-1.77-5.25Zm-7.79-4.26h6.37l-3.2-9.54-3.17,9.54Z"/><path class="cls-2" d="m35.73,16.16h-4.19v9.33h-5.25V0h9.47c3.01,0,5.34.67,6.97,2.01,1.63,1.34,2.45,3.24,2.45,5.69,0,1.74-.38,3.19-1.13,4.35s-1.89,2.09-3.42,2.78l5.52,10.42v.25h-5.64l-4.78-9.33Zm-4.19-4.26h4.24c1.32,0,2.34-.34,3.06-1.01.72-.67,1.09-1.6,1.09-2.78s-.34-2.15-1.02-2.84-1.73-1.03-3.14-1.03h-4.22v7.65Z"/><path class="cls-2" d="m67.49,4.26h-7.81v21.24h-5.25V4.26h-7.71V0h20.77v4.26Z"/><path class="cls-2" d="m89.79,0v16.79c0,2.79-.87,5-2.62,6.62-1.75,1.62-4.13,2.43-7.15,2.43s-5.34-.79-7.09-2.36-2.64-3.74-2.68-6.5V0h5.25v16.83c0,1.67.4,2.89,1.2,3.65.8.76,1.91,1.15,3.32,1.15,2.95,0,4.45-1.55,4.5-4.66V0h5.27Z"/><path class="cls-2" d="m103.54,16.16h-4.19v9.33h-5.25V0h9.47c3.01,0,5.34.67,6.97,2.01,1.63,1.34,2.45,3.24,2.45,5.69,0,1.74-.38,3.19-1.13,4.35s-1.89,2.09-3.42,2.78l5.52,10.42v.25h-5.64l-4.78-9.33Zm-4.19-4.26h4.24c1.32,0,2.34-.34,3.06-1.01.72-.67,1.09-1.6,1.09-2.78s-.34-2.15-1.02-2.84-1.73-1.03-3.14-1.03h-4.22v7.65Z"/><path class="cls-2" d="m130.21,18.81c0-.99-.35-1.75-1.05-2.29-.7-.53-1.96-1.09-3.78-1.68-1.82-.59-3.26-1.17-4.33-1.74-2.9-1.56-4.34-3.67-4.34-6.32,0-1.38.39-2.61,1.16-3.69.78-1.08,1.89-1.92,3.34-2.53s3.09-.91,4.89-.91,3.44.33,4.87.99c1.42.66,2.53,1.59,3.32,2.79s1.18,2.57,1.18,4.1h-5.25c0-1.17-.37-2.08-1.1-2.72-.74-.65-1.77-.97-3.1-.97s-2.28.27-2.99.81c-.71.54-1.07,1.26-1.07,2.15,0,.83.42,1.52,1.25,2.08.83.56,2.06,1.09,3.69,1.58,2.99.9,5.17,2.01,6.53,3.34s2.05,2.99,2.05,4.97c0,2.21-.84,3.94-2.5,5.19-1.67,1.26-3.92,1.88-6.74,1.88-1.96,0-3.75-.36-5.36-1.08-1.61-.72-2.84-1.7-3.69-2.95-.85-1.25-1.27-2.7-1.27-4.34h5.27c0,2.81,1.68,4.22,5.04,4.22,1.25,0,2.22-.25,2.92-.76.7-.51,1.05-1.22,1.05-2.13Z"/></svg>